<svg id="Layer_1" data-name="Layer 1" xmlns="http://www.w3.org/2000/svg" viewBox="0 0 1079.24 1078.2"><defs><style>.cls-1{fill:#fff;}.cls-2{fill:#e07e7d;}.cls-3{fill:#1b4366;}.cls-4{fill:#f4ba9f;}.cls-5{fill:#f8d7c7;}.cls-6{fill:#c1a844;}.cls-7{fill:#1b465b;}.cls-8{fill:#275146;}.cls-9{fill:#214349;}.cls-10{fill:#192724;}.cls-11{fill:#0f2b2e;}.cls-12{fill:#9fa359;}.cls-13{fill:#082a3c;}.cls-14{fill:#8a9e5a;}.cls-15{fill:#2d3314;}.cls-16{fill:#283e37;}.cls-17{fill:#88616d;}.cls-18{fill:#986e6c;}.cls-19{fill:#e29471;}.cls-20{fill:#1d0600;}.cls-21{fill:#452816;}.cls-22{fill:#462716;}.cls-23{fill:#aa9332;}.cls-24{fill:#efb8a0;}.cls-25{fill:#1c0903;}.cls-26{fill:#7c4540;}.cls-27{fill:#eeb59c;}.cls-28{fill:#997f3d;}.cls-29{fill:#894432;}.cls-30{fill:#905349;}.cls-31{fill:#8e534c;}.cls-32{fill:#83432f;}.cls-33{fill:#060000;}.cls-34{fill:#d5be48;}.cls-35{fill:#371b0c;}.cls-36{fill:#efb69c;}.cls-37{fill:#a6bc59;}.cls-38{fill:#eeb69c;}.cls-39{fill:#899665;}.cls-40{fill:#180b06;}.cls-41{fill:#856470;}.cls-42{fill:#854c48;}.cls-43{fill:#7f5f6c;}.cls-44{fill:#7b5e6d;}.cls-45{fill:#88736b;}.cls-46{fill:#8c504b;}.cls-47{fill:#826d73;}.cls-48{fill:#896871;}.cls-49{fill:#a37e53;}.cls-50{fill:#283b37;}.cls-51{fill:#092a48;}.cls-52{fill:#374541;}.cls-53{fill:#bb9c36;}.cls-54{fill:#ae7e35;}.cls-55{fill:#6c3516;}.cls-56{fill:#8a7a3d;}.cls-57{fill:#6f5529;}.cls-58{fill:#446637;}.cls-59{fill:#9d852d;}.cls-60{fill:#6e762f;}.cls-61{fill:#694d1d;}.cls-62{fill:#504b36;}.cls-63{fill:#442614;}.cls-64{fill:#190902;}.cls-65{fill:#6c3624;}.cls-66{fill:#d9b348;}.cls-67{fill:#c3b275;}.cls-68{fill:#b2a665;}.cls-69{fill:#1b0401;}.cls-70{fill:#1d0501;}.cls-71{fill:#e19777;}.cls-72{fill:#e19574;}.cls-73{fill:#2a1007;}.cls-74{fill:#e19879;}.cls-75{fill:#dd9373;}.cls-76{fill:#c99a85;}.cls-77{fill:#5a2915;}.cls-78{fill:#f6f7ef;}.cls-79{fill:#452215;}.cls-80{fill:#924e33;}.cls-81{fill:#f6e3d3;}.cls-82{fill:#965135;}.cls-83{fill:#f2eee8;}.cls-84{fill:#8b442c;}.cls-85{fill:#c89b86;}.cls-86{fill:#854026;}.cls-87{fill:#a86a54;}.cls-88{fill:#664a3f;}.cls-89{fill:#f3baa0;}.cls-90{fill:#d97062;}.cls-91{fill:#f2b69f;}.cls-92{fill:#110806;}.cls-93{fill:#712011;}.cls-94{fill:#772a12;}.cls-95{fill:#913424;}.cls-96{fill:#150a06;}.cls-97{fill:#4f2717;}.cls-98{fill:#f1ebe6;}.cls-99{fill:#cdc2b5;}.cls-100{fill:#da7d69;}.cls-101{fill:#dfcebf;}</style></defs><title>user</title><path class="cls-1" d="M540.5,1079q-267.47,0-534.94.09c-3.63,0-4.66-.63-4.66-4.53Q1.07,540.13.88,5.69C.88,1.5,1.89.9,5.81.9q534.69.16,1069.38,0c3.92,0,4.93.6,4.93,4.79q-.19,534.18,0,1068.37c0,4.4-1.12,5-5.18,5Q807.71,1078.92,540.5,1079Z" transform="translate(-0.88 -0.9)"/><path class="cls-2" d="M243,780.91a626.87,626.87,0,0,1-42-67.76,660.83,660.83,0,0,1-45.3-104.23,607.44,607.44,0,0,1-24.82-102c-4.69-30.65-7.25-61.44-6.63-92.42,1.13-55.48,10.57-109.4,32.05-160.86,14-33.6,32.81-64.37,57.36-91.24,40.45-44.27,90.09-73,148.94-85.51A310.36,310.36,0,0,1,413,70.73c30.63-1.4,60.69,2.15,90.47,8.89,4.29,1,8.28-.22,12.21-1.53C522,76,528.34,74,535.09,74c18.32-.16,36.64-1.09,54.9,1.33a38.63,38.63,0,0,1,12.26,4.14C623.49,90.18,646.38,96.1,669,102.67c12.06,3.5,23.47,8.45,34.7,13.86,10.3,5,20.38,10.39,30.62,15.49A88.59,88.59,0,0,1,748,140.27a.8.8,0,0,1-.43,1.21c-1.8.54-3.19-.4-4.64-1.22A586,586,0,0,0,690,113.71c-10.25-5.36-21.5-7.8-32.44-11.17-19.66-6.05-39.44-11.77-58-20.93-8.52-4.21-18-4.32-27.19-5-8.93-.68-18-.08-26.93-.17A92.3,92.3,0,0,0,516.08,81a19.31,19.31,0,0,1-5.29,1.34c-8.33-.5-15.92,2.88-23.77,4.74-14.77,3.49-28.54,9.78-42,16.62-9.17,4.67-16.54,12.15-25.13,17.8-7.35,4.82-14.86,9.42-20.87,16-5.56,5-10.34,10.68-15.82,15.71a33.48,33.48,0,0,1-6.59,5.2c-9.84,9.16-20.88,17.18-28.68,28.27-4.82,6.86-9.32,14.12-9.56,23.1a17.44,17.44,0,0,0,7.71,15.39c8.28,5.78,8.92,15.84,5.63,23.55a95.89,95.89,0,0,0-7.39,33.3,202.77,202.77,0,0,1-3.27,26.1c-.89,4.93.18,9.55.27,14.31.32,15.77,1.7,31.51,1.13,47.31a41.45,41.45,0,0,0,.71,10.4c1.1,5.09-1.06,9.08-5.29,12-2.24,1.33-4.52.4-6.77.06-6.07-.93-7.17,0-6.75,6-1,2-.8,4.4-1.83,6.42-1.6,3.33-.83,6.82-.67,10.26.1,2.14.7,4.27-.06,6.4a53,53,0,0,0-3.25,25.95c2,16,4.62,31.87,5.22,48a20.63,20.63,0,0,0,1.49,7.29c-3.91,7.08-4.31,15.14-6.28,22.75-1.23,4.77.55,9.2,3.06,13.27a5.87,5.87,0,0,0,5.5,2.79c1.79,0,3.65-.67,5.37.37.49.61.51,1.8,1.52,1.77,6.7-.21,7.54,4.87,7.78,9.45,1.07,20.14,6.86,39.11,14.32,57.56a169.09,169.09,0,0,0,12.31,24.87c3.94,6.47,4.28,13.45,5,20.5a14.55,14.55,0,0,1,.6,1.41c.81,1.61,1.63,3.22,1.26,5.12-1.78,4.39-1.95,9.12-2.77,13.71-.85,1.63-2.9,2-3.79,3.66-6.68,6.43-13.34,12.86-18.5,20.68a63,63,0,0,0-5.19,9,117.61,117.61,0,0,0-15.33,28.32c-2,5.53-5.44,10.26-8.42,15.26-2.84,3.1-5.59,6.31-9,8.81-5.59.82-9.72,4.68-14.54,7.09a132.88,132.88,0,0,1-25.53,9.51C262.57,777.57,252.8,779.64,243,780.91Z" transform="translate(-0.88 -0.9)"/><path class="cls-2" d="M747.84,141.16c.06-.29.1-.59.14-.89,9.6,4.59,17.53,11.37,24.52,19.23a85.67,85.67,0,0,1,8.8,12.07c4.06,6.55,7.36,13.46,6.89,21.51-.61,10.17,2.6,19.33,7.57,27.95a44.56,44.56,0,0,1,6.41,23.26c-.14,10.48,1.59,20.9,1,31.4-.12,2,.35,4.15-.79,5.87-3,4.57-.63,7.88,2,11.52a674.52,674.52,0,0,1,41,63.7,671.88,671.88,0,0,1,34.27,68.74,647.89,647.89,0,0,1,33.51,100.59,664.2,664.2,0,0,1,12.48,67c1.61,11.85,2.43,23.81,3.26,35.74a477.86,477.86,0,0,1-.86,74.81c-3.29,37.72-10.87,74.56-23.92,110.19A357.05,357.05,0,0,1,885,857.15c-1.46,2.78-2.71,5.7-5,8-3.27,3.55-5.88.51-8.13-1.2a73.38,73.38,0,0,1-11-10,52.08,52.08,0,0,0-3.89-3.83,6.77,6.77,0,0,1-1-1c-3.61-5.36-8.16-10-12.14-15a6.11,6.11,0,0,1-1-1c-6.47-10.26-14.46-19-24.95-25.34-5.61-3.44-10.25-8.33-17-10.16-3.87-1-7.65-2.23-11.63-2-9.74.55-18.46-1.75-25.74-8.52a5.16,5.16,0,0,0-1.8-.82,6.14,6.14,0,0,1-1.25-.76c-7.9-6.32-14.93-13.7-23.39-19.35a7.46,7.46,0,0,1-1.06-.89c-3.48-3.23-6-7.5-10.76-9.3a5.16,5.16,0,0,1-1.14-.82c-5.26-4.62-8.6-10.93-13.82-15.57-4.43-5.79-11.23-8.83-16.28-13.9-2-2.36-1.61-6.84-6.09-7.14-5.15-2.07-10-4.76-15.25-6.71s-6.55-6.91-9-11.06A17,17,0,0,1,662,688.18c1.11-4.47-.86-8.88-.31-13.33,2-8.2,6.28-15.08,11.07-22a284.84,284.84,0,0,0,21.19-35.46c1.74-5.17,4.38-10,5.75-15.29,1.12-4.32,5.05-4.86,7.73-7.08a2.75,2.75,0,0,1,1.36-.45c6,1.39,11.83,1.89,15.92-4.2,2.39-3.56,3.07-7.11.91-11.12-1.79-3.33-3.94-6.47-5.48-10,.5-4.6.31-9.23.5-13.84a21.83,21.83,0,0,1,4-11.59c1.84-2.64,3.17-5.42,2.92-8.74.61-2.79.42-5.82,2.4-8.21,3.93-2.66,4.57-7.32,6-11.17,5.77-15.55,12.22-30.81,18.43-46.18a20,20,0,0,0,1.12-8.32c-.09-2.27.39-4.86-2.5-5.91s-4.33.81-5.86,2.64a15.55,15.55,0,0,1-3.48,3.53c-.95.59-2,1.38-3.08.19a3.57,3.57,0,0,1,.48-3.8c3.15-3.66,2.75-8,2.48-12.23-.51-8.17,2.89-15.61,4.44-23.38,3.25-16.27,5.37-32.71,7.6-49.14,1.25-9.18,4-17.1,11.73-23.21,12.31-9.71,17.68-23.8,22-38.27,1-3.32.37-7,.19-10.46a14.22,14.22,0,0,1,4.62-11.65c4-3.78,5.36-8.44,5.56-13.87.44-12.5-.86-24.93-1.26-37.38-.25-7.78-4.42-14.59-8.15-21.25s-5.84-13.62-5.51-20.92c.57-12.4-4.75-21.91-12.06-31.25-6.38-8.14-14.09-14.45-22.47-20.2C749,143.8,747.68,143,747.84,141.16Z" transform="translate(-0.88 -0.9)"/><path class="cls-3" d="M877.1,871c-27.08,46.29-63.58,83-110.91,108.56-48.44,26.13-100.39,36.3-155.14,33.22a318.51,318.51,0,0,1-60.11-8.77c1.92-4.65,1.92-4.65,6.91-6.84-.62-1.61-3.42-2.5-2-4.86,1.22-2,2.82-3.34,5.29-2.94s3.19-1.06,3.33-3.16c.21-3.09-.26-5.94-2.41-8.38-2-2.25-1.81-4.52.33-6.62a14.19,14.19,0,0,0,4.46-9.71c.15-2.7,1.66-5,3.38-7.13,2.16-2.61,4-5.34,4.19-8.86a4.14,4.14,0,0,1,2.21-3.68c3.66-1.85,5.09-5.07,5.89-8.78.14-.65.24-1.48.71-1.84,5.33-4.12,8.2-11.22,15.55-12.89,1.35-.3,2.71-.79,3.31-2,2.41-5,7.81-5.91,11.83-8.68a4.79,4.79,0,0,1,3.83-.86c5.23,1.52,7.79-2.55,11.09-5.08.77-.59,1.78-1.92.69-2.44-4.39-2.1-2.57-5.38-2-8.49,0-2.49.77-4.87,3-5.92,7.79-3.71,11.37-11.36,16.54-17.45,3.37-4,8.2-6.57,10.56-11.43,5.75-3.78,10.28-8.71,14.42-14.2,2.92-3.88,5.27-8.42,9.79-10.95a4.58,4.58,0,0,0,2-2.19c1.54-3.94,5.13-6.6,6.95-10.06,6.08-11.48,14.09-22.2,16.08-35.53a68.4,68.4,0,0,0-.52-23.27c-1.42-7.31-2.92-14.56-5.74-21.47a3.73,3.73,0,0,1,.08-3.38c4.28-2.75,5.89,1.5,8.47,3.22,5.45,5.45,10.22,11.55,15.88,16.8h0c4.23,3,8,6.66,11.95,10l0,0c7.72,7,15.84,13.53,24,20l0,0c5.35,4.14,10.71,8.17,17.52,9.81a26.28,26.28,0,0,0,7.87.69,38.08,38.08,0,0,1,27.83,9.25,15.32,15.32,0,0,0,2.46,1.65C827.81,813.19,836,823,844,833l0,0c3.85,5.72,8.43,10.86,12.87,16.11h0c4.81,6.65,11,11.81,17.75,16.36C876.81,867,878.37,868.25,877.1,871Z" transform="translate(-0.88 -0.9)"/><path class="cls-4" d="M440.86,962c-14.14-6.86-27.17-15.58-40.39-24-12.24-7.78-23.52-16.87-35.08-25.55-8.46-6.34-16.22-13.61-24.29-20.47a39.51,39.51,0,0,1-.33-14.3c1.57-5.51,1.21-11.28,1.44-16.83.38-9.12,1.39-18.2,1.42-27.36,0-6.27,1.07-12.55,1.09-18.86,1.26-5.54.51-11.31,1.92-16.82,1.42-8.82,2.85-17.7,8.55-25,3.76-4.81,8.29-9,12.16-13.72,1.36-1.66,2.92-3.16,3.63-5.26,3.86-6.36,3.81-13.33,3-20.34a97.35,97.35,0,0,1-.61-11.94c.43-1.85-.11-4.42,2.49-4.89,2.34-.43,3.34,1.69,4.56,3.27,6.45,8.34,10,18.43,16.21,26.94a68,68,0,0,0,12.84,13.84c14.06,11,28.43,21.32,45.28,28,12.43,4.93,25.34,7.18,38.37,8.58,23.23,2.49,45.68-2.06,67.68-9.33,7.42-2.45,13.76-6.7,19.78-11.46,3.55-2.8,7.78-4.51,11.22-7.45a2.83,2.83,0,0,1,2.83-.49c2,1.83.45,3.3-.57,4.72-11.78,16.51-21.46,34.27-31.11,52.05-9.05,15.52-17,31.61-25,47.7-1.84,3-4.37,5.53-6.31,8.49a67.76,67.76,0,0,1-12.86,11.73c-12.93,9.32-23.65,20.78-33.58,33.12-8.93,11.11-19.79,20.08-31.82,27.64C449.21,956.65,445.5,960.06,440.86,962Z" transform="translate(-0.88 -0.9)"/><path class="cls-5" d="M928.9,298.79c3.42-9.93-.71-20,.7-30.16,1.22-8.81-1.45-18.13,1.41-27,1.82-5.7,1.8-11.9,4.82-17.27a6.74,6.74,0,0,0,1-2.79c.59-12.17,6.73-17.37,18.72-19.91,7.65-1.63,11.9,3.93,18,4.83,1.89,6.61,10.16,7.75,12.2,14.92,1,3.63,5,7.33,8,10.23,5.23,5.1,5.24,11.19,6.1,17.27.36,2.54.47,5.09,2.37,6.88,2.74,2.59.85,5.69,1.21,8.5,1.47,11.22,1,22.43-.08,33.72a67.73,67.73,0,0,1-4.71,20.16c-2.08,5-3.76,10.57-9.33,13.36a5.91,5.91,0,0,0-3,3.23c-1.63,6.48-6.85,7.8-12.16,8.13-4,.26-7.61,1.93-11.6,2.4-9.94,1.17-16-4.48-21.35-11-6.24-7.66-10.36-16.5-10.33-26.78C931,304.43,928.23,302,928.9,298.79Z" transform="translate(-0.88 -0.9)"/><path class="cls-6" d="M347.93,797.05c-.36,5.67-.62,11.35-1.86,16.93-1.76,1-.87,2.64-1.06,4-1.91,13.75-1,27.7-3,41.45-2.31,4.71-4,9.63-8,13.52-3.11,3-6,4.38-10.05,3.12a585.74,585.74,0,0,1-55-60.19c-5.46-6.88-10.63-14-15.94-21-1-4.51-.07-6.36,3.86-6.38,3.53,0,6-1.59,8.29-3.84,2-2,4.17-3.18,7.05-2.92a5,5,0,0,0,3.39-.57c6.09-4.44,13.57-5.92,20.16-9.41,4.9-2.6,9.33-6,14.39-8.24,1.18-.53,2.47-1.09,2.74-2.63,2.11-3.23,4.56-6.12,8.1-7.89,1.75,1.26.94,3.42,1.92,5.33a31,31,0,0,0,11.14-5.77c3.68-3.12,7.43-6.09,12.32-7.29a18,18,0,0,1,8.29-.36c8.15,1.71,12.76-2.15,12.8-10.33,0-3-.16-6,.15-9,.15-1.41.1-3.47,2-3.45,1.47,0,1.55,1.88,1.74,3.18a102.43,102.43,0,0,0,1.89,10.27c.42,5.55,1.23,11.13-1.2,16.46A92.55,92.55,0,0,1,360,767.2c-8.1,8.34-11.58,18.36-13.09,29.42C346.79,797.38,347.69,796.63,347.93,797.05Z" transform="translate(-0.88 -0.9)"/><path class="cls-7" d="M629,891c-.43,2.74-2.78,5.63,2.32,7.21,2.53.79.64,3.52-1.11,4.56-2,1.2-4,2.26-5,4.59-.88,2-2.58,1.69-4.28,1.11a8.7,8.7,0,0,0-8.84,1.81c-3,2.49-7.77,2.68-9,7.65-.43,1.74-3.19,2.11-5.28,2.06-1.56,0-4.12.61-3.95,1.4,1.35,6.29-4.52,5.23-7.15,7.31s-2.9,4.77-3.52,7.46c-.68,3-1.82,5.27-4.92,6.24-2,.61-2.75,1.66-2.48,4.06.36,3.11-1.61,5.64-3.67,7.88-2.56,2.78-4.3,5.87-4.14,9.81.15,3.57-2.25,5.79-4.6,7.91-2,1.83-2.29,3.22,0,5.21,4.05,3.49,2.8,8.19,2,12.55-.35,2-1.94,2.64-3.77,1.26-2.52-1.9-3.89.22-4.73,1.78-1.38,2.56,1.18,1.88,2.35,2.2a1.84,1.84,0,0,1,1.58,1.65c.07.87-.16,2-1.08,2-3.87,0-6.29,1.94-7.87,5.27-.07.15-.63.06-1,.09l-2.87-.28a499.42,499.42,0,0,1,19.34-50.59c1.53-3.39,3.29-6.7,3.67-10.5-3,3.35-3.14,7.84-4.65,11.78-4,10.54-9.38,20.53-12.83,31.32-1.36,4.27-2.65,8.57-4.08,12.83-.59,1.74-1,3.54-2.69,4.61a312.52,312.52,0,0,1-43-13c9.79-13.82,19.62-27.56,32.31-39.05,7.69-7,16.11-12.58,24.83-18.15,9.83-6.26,21.87-8.49,30.21-17.18,5.46-6.28,13.58-8.6,20-13.45,4.48-3.36,8.6-7.25,13.46-10.11C626.05,891.46,627.05,889.63,629,891Z" transform="translate(-0.88 -0.9)"/><path class="cls-8" d="M500.89,989.18c-12.18-4.47-24.25-9.18-35.75-15.24a11.24,11.24,0,0,1,2.25-5.48c6.83-10.37,12.74-21.52,24.06-28.08,3.18-1.85,5.41-4.91,8.14-7.33,1.36-1.21,2.61-3.28,5-1.71a18.38,18.38,0,0,0,7.7,13.55c3.74,2.8,7.35,4.83,12.1,4.66,2.31-.09,4.66.07,6.49,1.84,1.15,1.89-.16,3.19-1.26,4.33a210.6,210.6,0,0,0-24.44,30.46C504.16,987.74,502.92,989.05,500.89,989.18Z" transform="translate(-0.88 -0.9)"/><path class="cls-9" d="M461,972a101.4,101.4,0,0,1-17.14-8.84c.87-3.65,4.1-5.26,6.79-6.86,17.39-10.38,31.81-24,44.23-39.84,5.47-7,12.39-12.52,18.88-18.48,1.1-1,2.42-2.06,4-1.15s1.32,2.54,1.17,4c-.52,5.09-1.75,9.87-5.89,13.36a3.52,3.52,0,0,0-1,1.11c-6.16,13.47-18.49,21.09-29,30.43a83,83,0,0,0-16.49,19.93A19.1,19.1,0,0,1,461,972Z" transform="translate(-0.88 -0.9)"/><path class="cls-10" d="M461,972c3.17-5,6.1-10.15,9.56-14.94,7.86-10.89,19.25-18.13,28.85-27.24,3.35-3.19,7.11-5.95,8.62-10.69a11.65,11.65,0,0,1,4.18-6.1c4.88-3.44,4.49-8.93,5.67-13.83a1.26,1.26,0,0,0-.78-1.62c-1-.29-1.53.45-2.12,1-9.08,8.4-17.88,17-25.72,26.66a121.61,121.61,0,0,1-21.95,21.21c-7.72,5.73-16.2,10.37-23.45,16.72l-3-1.14c2.15-3.82,6.13-5.43,9.56-7.56a155.23,155.23,0,0,0,41.8-38.57c8.33-11,19.82-18.52,30.09-27.39,2.86-2.48,5.63-5.08,8.44-7.62,1.46-.51,1.73.55,2,1.55a4.06,4.06,0,0,1-.17,1.47c-2.12,3.64-5.13,6.71-6.77,10.66-2,4.09-2.79,8.63-4.86,12.68-3.21,6.74-7.77,12.66-11.58,19-1.25,2.08-2.64,4.27-5.42,4.71-6.15,5.46-12.65,10.54-18.83,15.89-7.52,6.51-12.83,15.31-17.54,24.2a7.23,7.23,0,0,1-2.49,2.88A9.32,9.32,0,0,1,461,972Z" transform="translate(-0.88 -0.9)"/><path class="cls-11" d="M500.89,989.18a82.49,82.49,0,0,0,5.41-7c6.89-11.17,16.12-20.4,24.76-30.13,2.33-5.73,7.56-8.62,12.17-11.92q8.28-5.91,16.33-12.09c6.67-4.67,15-5.57,21.89-9.76a9.26,9.26,0,0,1,1.37-.48c2.21-.12,3.76-1.71,5.65-2.53s3.44-1,3.55,1.75c-4.82,4.85-11.4,7.1-16.74,11.21a4.9,4.9,0,0,1-3.32.7c-3-.37-4.89,1-6.69,3.24-3,3.7-8,4.24-11.81,6.84A94.69,94.69,0,0,0,540,949.59c-7.7,7.54-15.51,15-22.41,23.29-3.59,4.35-5.31,9.87-9.12,14.07-1.33,1.47-2.25,3.33-4.62,3.24C502.85,989.87,501.57,990.42,500.89,989.18Z" transform="translate(-0.88 -0.9)"/><path class="cls-12" d="M312.9,760.93c3.6,2.33-.21,3.4-1.08,3.7-3.15,1.11-6.09,1.8-7.53,5.58-.68,1.79-4.05-.06-5.53,1.17-5.45,4.53-12.49,5.59-18.47,8.88-3.16,1.74-5.86,4.37-10,2.84a2.71,2.71,0,0,0-2.69,1c-3.28,3.26-6,7.21-11.9,5.82-1.83-.43-3,2.63-2.73,5L248.09,788c1.51-3.45,5.08-4,7.93-5.45s5.94-2,8.74-3.42c2.57-1.39,5.74-.38,8.24-2.05,5.09-.64,9.08-4.51,14.12-5.07,6.25-.7,10.82-5.05,16.1-7.6C306.44,762.84,309.09,760.65,312.9,760.93Z" transform="translate(-0.88 -0.9)"/><path class="cls-13" d="M546.83,1003.22A232.24,232.24,0,0,1,563.21,959c1.88-3.8,2.58-8.18,3.84-12.28a14.84,14.84,0,0,1,1-2.8c1.08-2,2-5.4,4.47-4.42,2.24.88.73,4.25-.07,6-6.7,14.91-13.19,29.89-18.49,45.39-1.5,4.39-2.17,9.4-5.91,12.86C547.45,1004.05,547.06,1003.81,546.83,1003.22Z" transform="translate(-0.88 -0.9)"/><path class="cls-14" d="M324,876.08c8.91-1.16,13-7.2,15.39-15.06.14-.48,1-.76,1.52-1.13a3.3,3.3,0,0,1,1.42,2.8c-1.14,8.72-2.7,17.37-4.2,26Z" transform="translate(-0.88 -0.9)"/><path class="cls-15" d="M338.08,888.73c-2.18-7.57,1.61-14.48,2.38-21.72.14-1.31.37-2.6.56-3.89,1.09-.11,1.48.5,1.45,1.45-.14,4.46.41,8.93-.32,13.37-.54,4.67.93,9.48-1,14Z" transform="translate(-0.88 -0.9)"/><path class="cls-16" d="M265.32,780l-17.23,8L245,783.76a2.07,2.07,0,0,1,1.69-3.28c5.12-.41,9.88-2.91,15.11-2.46C263.3,778.14,264.94,777.92,265.32,780Z" transform="translate(-0.88 -0.9)"/><path class="cls-17" d="M877.1,871c-1-5.74-6.9-6.48-10.22-9.88-3.68-3.76-8.67-6.34-10-12,5.79,3.18,9.18,9.09,14.52,12.79,2.62,1.81,4.81,4.61,8.61,3.22C879.36,867.26,878.81,869.43,877.1,871Z" transform="translate(-0.88 -0.9)"/><path class="cls-18" d="M265.32,780a25.44,25.44,0,0,0-20.28,3.8L243,780.91c4.79-3.15,10.46-3,15.78-3.74,4.66-.68,9.49-.13,14.25-.12C271.35,780.41,267.8,778.79,265.32,780Z" transform="translate(-0.88 -0.9)"/><path class="cls-19" d="M595.11,769c-6.42,4.26-13.1,8.18-19.21,12.85-6.51,5-14,7.57-21.53,10-15,4.85-30.7,6.46-46.3,7.94-10.12,1-20.08-1.73-30.06-3.25-25.18-3.86-45.95-16.48-65.83-31.59-12.09-9.19-20.08-21-26.6-34.13-2.15-4.34-5.91-7.55-7.54-12.15-.24-.68-1.11-1.5-2-1.12-1.59.68-.59,2.39-1.13,3.53-2.43-.46-2.37-2.53-2.52-4.23-.76-8.33-2.38-16.6-2-25,.36-3.26.08-6.53.2-9.79.06-1.79-.1-3.64,1.44-5,.1-5.22-.68-10.62,3.16-15,5.47,1.8,7.81,6.73,9.95,11.19,9.95,20.76,26.32,35.75,43.66,50,12.14,10,26.53,13.71,41.81,14.25,18,.64,35.9-.92,53.81-2.55,12.27-1.12,24.46-2.14,36.58-4.7,13.3-2.8,24.73-8.82,35.14-17.07,6.95-5.51,14-10.74,22.32-14,8.12-3.19,14.91-8.75,22.5-12.9a23.27,23.27,0,0,1,5.42-2.53c1.9-.09,3.38-1.78,5.39-1.41,3.57,3,3.82,6.89.83,12.51-1.35,1.38-2.18,3.17-3.57,4.51a13.45,13.45,0,0,0-4.47,4.59c-9.36,14-18.25,28.26-29.57,40.8-5.39,7.09-9.8,14.89-15.57,21.7C598.24,767.69,597.4,769.48,595.11,769Z" transform="translate(-0.88 -0.9)"/><path class="cls-20" d="M647,684.81c-4.66,1.05-8.24,4.17-12,6.74a99.44,99.44,0,0,1-17.92,9.8,56.74,56.74,0,0,0-16.46,10.21c-17.36,15.81-38.57,21.85-61.23,23.69-21.9,1.79-43.77,3.69-65.81,3.68-23.33,0-42.41-8.7-58.25-25.22-10.33-10.78-22.17-20.36-28.58-34.38A67.25,67.25,0,0,0,375.16,662c.39-1.81-1.44-2.58-1.86-4a8.54,8.54,0,0,0,.09-1c2.78-14.28-6.75-24.62-11.65-36.42-2.46-5.92-6.44-11.28-6.3-18.11,0-1.15-.47-2.49.62-3.23,1.37-.91,2.58.14,3.55,1,5,4.31,11.16,6.45,17.05,9.07,2.85,1.27,4.44.46,4.37-2.94,0-1.66-.8-4.19,1.85-4.31,2.05-.09,2.71,2.13,3.26,3.9,1.1,3.58.48,7.7,3.48,10.65.59.45,1.14.94,1.7,1.43,3.87,2.53,7.86,2,11.87.45,2.5-.94,5.42-2.88,4.88,2.4-.19,1.87,1.34,2.69,2.62,3.28,6.47,3,10.47,9.2,16.68,12.51,1.68.9,2.26,2.8,3.08,4.45,3.33,6.71,6.92,13.32,10.84,19.67,7.4,12,19.27,17.9,32.35,21.58a110.18,110.18,0,0,0,28,4.34c4.56.08,8.38,3.06,12.91,3.68,6.92.94,13.63,3,20.58,3.92,12.93,1.75,23.38,9.36,34.54,15.19,8.7,4.54,10,4.23,17.89-1.41s15.93-10.71,25.65-12.78a31,31,0,0,0,11.81-5c4.21-2.66,8.08-5.81,12.36-8.37,2.3-1.37,4.68-2.88,6-5.12,7.29-11.92,17.87-21.43,24.48-33.86,5.4-10.17,13-18.77,20.4-27.52,1.06-1.27,2.33-2.81,4.1-2.4,2.09.48,1.76,2.47,1.61,4.14a239.92,239.92,0,0,1-24,39.92,50.66,50.66,0,0,0-7.55,16.65c-.5,1.15-.37,2.44-.84,3.6a8.31,8.31,0,0,1-7.28,4.14A10.76,10.76,0,0,0,647,684.81Z" transform="translate(-0.88 -0.9)"/><path class="cls-21" d="M377,157l21-20c10.18-9.66,22.75-16,33.87-24.36,2-1.51,3.77-3.26,5.73-4.79,1.26-1,2.38-1.83,4-1,3.19,1.22,6.28.13,9.31-.59A214,214,0,0,0,487,94.36c11.13-4.87,22.68-6.52,34.54-7,24-1,47.88,3,71.89,2,2.21-.09,4.22.88,6.33,1.33,4,3.22,3.71,6.5-1.38,8.84-7.1,3.25-14.2,6.59-21.88,8.42a457.39,457.39,0,0,1-57.06,9.76c-8.63.94-16.87,3.77-25.45,5a270.32,270.32,0,0,1-29.27,2.91c-11.78.46-23.64.87-35,4.7-3,1-5.68,2.8-8.65,3.87-2.65,1-5.53,1.49-6.54-2.09-.88-3.12-2.31-1.53-3.57-.72a103.85,103.85,0,0,0-14.62,12.07c-7,6.63-14,13.28-21,19.9-1.56,1.46-3,3.23-5.44,3.14-2.22-1-.66-2.11.11-2.91A55,55,0,0,1,377,157Z" transform="translate(-0.88 -0.9)"/><path class="cls-22" d="M389.19,617.89c-4.41-2.07-2.85-6.67-4.13-10-.68-1.78-.39-3.94-2.51-5.09-.46,10.62-2.54,11.66-12.4,5.59-4.55-2.8-10.27-3.76-13.53-9.77-.36,11.44,5.92,19.2,9.65,27.89,1.5,3.5,2.77,7.13,5.07,10.24,5,6.7,4.31,13.92,2,21.29-.11-.32-.22-.65-.34-1-.91-1.73-.44-3.59-.42-5.38a30.72,30.72,0,0,0-4.07-15.57c-11.44-21-20.62-42.86-24.55-66.68a123.09,123.09,0,0,1-2.08-17.25c-.09-3.86-.53-8.31-6.35-8.31-1.9,0-2-2-2.72-3.2-.57-3.2-1-6.38.78-9.37,1.6-1,2,.32,2.47,1.33.76,1.72.47,3.61.79,6.43a12,12,0,0,0,.1-6.13c-2-8.06-2.19-16.4-3.78-24.58-2-10.49-1.31-21.49-.58-32.28.09-1.34.36-3.07,1.6-3.47,3.09-1,2.25-3.15,2.43-5.42,1.05-12.8.59-25.62,1-38.42.05-1.64.16-3.43,2.31-3.91,2,1.59,1.69,3.87,1.72,6,.09,6.65.34,13.33,0,20-1.06,19.31,3.12,38,6.12,56.87a147.38,147.38,0,0,0,16.11,47.48,124.52,124.52,0,0,0,13,18.9,28,28,0,0,1,6,12.41c1.71,8.66,5,16.93,6.41,25.66C389.53,614,390.43,616,389.19,617.89Z" transform="translate(-0.88 -0.9)"/><path class="cls-23" d="M371.84,735c-1.55-3.79-1.42-7.93-2.84-11.82v12.4c0,8-7,13.65-14.73,11.16-6-1.93-10.76.29-14.78,3.58-5,4.08-10.48,7.22-15.92,10.5-1.9,1.14-3.21.65-3-1.87.14-2,.31-3.94.47-5.92.48-5.28,5.41-8.39,6.52-13.4,1.72-7.85,6.93-14.12,10.12-21.34,1.43-3.25,3-7.76,7.33-9.31,1.71-3.34,4.14-5.89,7.83-7a7.94,7.94,0,0,0,3.69-2.37c2.59-2.82,5.55-3.12,9-1.66s5,4.08,4.94,7.76c0,3-.23,6,1,8.79,1.23,4.45,1.55,9.05,2,13.62C373.62,730.5,374.19,733.14,371.84,735Z" transform="translate(-0.88 -0.9)"/><path class="cls-24" d="M333.92,531l.12,10c-.41.27-.49,1-1.15.9-3.65,1-7.73,2.78-10.68-.54-4.21-4.72-6.19-10.56-4.79-17,1.3-5.94,3.48-11.72,3.57-17.84.05-3.07,3-2,4-3.57-2.31-13.9-2.61-28-3.92-42C320,449,318.28,437,320,424.84a9.14,9.14,0,0,1,1-3.81c-.26-4.39-1.48-8.71-.95-13.17.18-1.56-.37-3.45,2-3.83a65.72,65.72,0,0,1,12.8,14.72,5.52,5.52,0,0,1,.59,1.47c1.73,5,1,10.08.81,15.16-5.65,21.63-6,43.71-5.34,65.83.24,7.78,2,15.46,3.44,23.14C334.71,526.57,335.66,528.9,333.92,531Z" transform="translate(-0.88 -0.9)"/><path class="cls-25" d="M747.84,141.16c3.77,2.71,7.68,5.23,11.27,8.16,11.76,9.59,21.63,20.65,26.19,35.55a16.37,16.37,0,0,1,.92,5.88c-.93,10.87,2,20.7,7.47,30,5,8.54,6.95,17.71,6.82,27.69-.12,8.62.86,17.27.77,25.94-.06,6.42-1.47,12-6.52,16.49-2.85,2.52-3.92,5.88-3.87,9.84.24,21.58-9.06,38.71-25.18,52.42-6.59,5.61-7.61,13.25-8.75,21-3.13,21.37-5.31,42.91-11.39,63.75a10.63,10.63,0,0,0-.6,2.91c0,7.27.7,14.65-3.77,21.11.2,1.82.11,3.41-2.43,3.06a8.41,8.41,0,0,1,.94-9.34,7.27,7.27,0,0,0,1.66-5.13c-1-10.85,2.36-21.09,4.48-31.49,3.08-15.18,6.16-30.4,7.38-45.82.92-11.53,6.17-19.88,14.39-27.39,10.8-9.87,16.44-22.77,19.55-36.86a10.27,10.27,0,0,0-.1-4,18.65,18.65,0,0,1,5-16.59c4.79-5,6.63-10.63,6.49-17.62-.2-9.65-1.23-19.25-1.39-28.92-.11-6.49-2.49-12.78-5.87-18.39-5.48-9.11-8.35-18.78-8-29.46.25-6.69-1.95-12.87-5.51-18.41-7.45-11.59-16.57-21.54-28.35-29C732.9,136,715,127.9,697.42,119.15c-3.13-1.56-7.16-2-8.6-6.07a1.6,1.6,0,0,1,2.18-.16,484.29,484.29,0,0,1,52.86,26.3C745.14,140,746.51,140.52,747.84,141.16Z" transform="translate(-0.88 -0.9)"/><path class="cls-26" d="M377,157,369.05,166c.5,2.5-1.56,3.43-2.94,4.76-6.07,5.88-12.56,11.37-17.44,18.39a52.47,52.47,0,0,0-7.29,15.73c-1.78,6.16-.47,11.45,3.56,16.24a27.79,27.79,0,0,0,3.81,3.93c8.42,6.77,8.24,15.6,5.05,24.45a162.61,162.61,0,0,0-5.86,19.51c-2.32,10.24-1.38,20.81-3.2,31.08-2.36,13.23-1.12,26.42-.2,39.65.59,8.44.12,16.93.19,25.39,0,2.83-.43,5.73.15,8.46,1.55,7.33.24,14.12-3.07,20.68-2.91,1.94-4.09.26-4.84-2.32,5.38-4.72,5.19-10.57,4.1-17-.76-4.53-.2-9.29-.16-13.95.15-14.94-1.15-29.83-1.7-44.74-.31-8.34,1.71-16.76,2.7-25.15,1.19-10,1.1-20.25,4-30a106.93,106.93,0,0,1,3.51-10.88c4.88-11.67,4-16.22-5.16-24.36-7.5-6.66-9.16-16.16-5.36-25.92,5.33-13.68,15.26-23.61,26.05-32.79C369,163.73,371.74,158.86,377,157Z" transform="translate(-0.88 -0.9)"/><path class="cls-21" d="M691,112.92l-2,.19c-1.83,1.69-3.75.85-5.57.07-14.41-6.19-29.91-8.9-44.63-14.07-13.14-4.61-26.42-8.89-38.9-15.23-7.84-3.81-16.46-4.54-24.81-4.87-14.6-.58-29.27-1.16-43.87.67a84.41,84.41,0,0,0-13.15,2.84c-3.31,1-6.63,2.36-10.22,1.16-1-1.66-1-1.66,2.13-2.62,8-1.62,15.51-4.76,23.78-5.21a385.79,385.79,0,0,1,50.2.42c12,.9,21.65,7.12,32.25,11.1,19.79,7.42,40.08,13.15,60.26,19.29C681.53,108.19,686.62,109.77,691,112.92Z" transform="translate(-0.88 -0.9)"/><path class="cls-27" d="M337,392c1.4.89,3,1.59,3.88,3.09,1.84,1.37,1.82,3.43,1.77,5.36-.12,5.4-.35,10.81-2.54,15.89-2.31,2.53-4.55,1.11-5.67-.86A121.77,121.77,0,0,0,324,399.54c-.3-.37-.14-1,0-1.43-1.26-1.49-2.79-3-1.25-5.1,1.39-1.94,3.11-3.45,5.74-2.92C331.28,390.67,334.12,391.35,337,392Z" transform="translate(-0.88 -0.9)"/><path class="cls-28" d="M370.06,714c-2.09-2.65-1.08-5.76-1-8.6.14-4.35-2.7-5.53-5.86-6.8s-4.74.54-6,2.76-3.28,1.8-5.22,2.39c-2.61.79-4.68,3.41-7,5.24-.58-2.42,1.07-4.11,2.21-5.78,6.16-9.05,12.51-18,21.73-24.3l.65.63c-.46,10.2,1.46,20.26,1.92,30.4A4.72,4.72,0,0,1,370.06,714Z" transform="translate(-0.88 -0.9)"/><path class="cls-29" d="M320.94,421c-.34,20.28,2,40.42,3,60.62a58.67,58.67,0,0,0,1.91,13.76c.76,2.56,1,5.26-.84,7.62-3.34-1.47-2.84-4.7-2.85-7.28-.1-16.33-3.19-32.29-5.4-48.38-1.16-8.42.9-16.79,2.75-25C319.62,421.82,320.44,421.46,320.94,421Z" transform="translate(-0.88 -0.9)"/><path class="cls-30" d="M332.89,542l1.15-.9c.18,1.4,1,1.9,2.37,2,5,.18,6.36,3.59,6.54,7.77.79,18.24,5.43,35.56,11.46,52.72,4.36,12.44,10.63,23.87,16.65,35.44,3.08,5.94,1.67,12,1.91,18.08-.22-.25-.61-.51-.61-.76.32-16.71-10.65-29.06-16.6-43.36a227,227,0,0,1-12.9-42.76c-1.31-6.55-1.68-13.13-2.5-19.68-.5-4-2.09-6.1-6.43-5.6C330.15,545.29,332.65,543.15,332.89,542Z" transform="translate(-0.88 -0.9)"/><path class="cls-31" d="M510,81.06,507,83c-.16.21-.32.41-.47.62-7.9,3.16-16.37,4.26-24.49,6.64a22.16,22.16,0,0,0-5.11,1.91c-6,4-13.36,4.54-19.59,8a48.12,48.12,0,0,1-7.48,3.78,19.12,19.12,0,0,0-8.21,3h-.69c-.48.14-1.1.13-1.4.44-10.11,10.35-23.6,15.94-34.81,24.74-2.16,1.7-3.65,4.43-6.72,4.9,2.63-4.46,7-7.14,11.06-9.87,10.35-7,20.1-14.78,30.47-21.62,11.94-7.88,25.36-13.13,39-17.43,7.92-2.5,16.07-4.21,24.08-6.44A17,17,0,0,1,510,81.06Z" transform="translate(-0.88 -0.9)"/><path class="cls-32" d="M323.93,398.11a42.59,42.59,0,0,1,10.16,14.39c.91,2.17,2,4.17,4.73,4.49,1.2,1.85.18,2.23-1.44,2.15-1.15-.05-2.27-1.66-3.46-.06-3.7-5.24-9.05-9.16-11.91-15.05C322.7,402.07,320.43,399.15,323.93,398.11Z" transform="translate(-0.88 -0.9)"/><path class="cls-28" d="M372,677q0,7.47-.08,14.93c-3.52-1.22-2.1-4.26-2.37-6.62-.22-2.05,1.28-4.21-.34-6.2l-.3-.24C369.21,677.09,369.87,675.84,372,677Z" transform="translate(-0.88 -0.9)"/><path class="cls-33" d="M601,83c20.67,9.53,42.31,16.37,64.15,22.44a163.69,163.69,0,0,1,20.42,7.22,13.08,13.08,0,0,0,3.42.48c6.27,4.09,13.48,6.26,20,9.77,15.66,8.37,32.25,15.15,46.48,26C768.91,159,780.06,171.11,784.48,188c1.48,5.67,0,11.53,1.21,17.34A56.68,56.68,0,0,0,792,221.44c4.49,7.93,7.28,16.24,7,25.48-.26,8.8,1.07,17.54,1.16,26.36a20.14,20.14,0,0,1-6.1,15.11c-4.68,4.84-6.75,10.3-5.29,17.18,1.07,5.07-1.61,9.76-3,14.48-2.53,8.51-7.85,15.63-12.59,23-1.65,2.55-4.62,4.22-7,6.3-6.31,5.57-10.57,12.24-11.05,20.89-.82,14.75-4.49,29.09-6.38,43.69a108.35,108.35,0,0,1-4.17,18.25c-1.86,5.94-1.53,11.82-1.58,17.76,0,2.92-.4,5.38-2.7,7.61-2.07,2-.37,5.12-1.2,7.62.77.46,1.6.77,2.36,1.25,1.89.94,4.63,1.24,3.5,4.52-5.28,4.26-7.1,10-7.69,16.54-1,11.71-3.62,23.24-4.69,35-.14,1.62-.29,3.32-1.68,4.51L729,535c-1.2,2.64-.46,7.48-4.77,6.84-3.62-.53-2.84-4.79-2.79-7.65a76.44,76.44,0,0,0-1.83-19.73c1.27-9.82,5.43-18.82,7.95-28.29A48.38,48.38,0,0,0,729.59,473c.26-6.59-.42-13.13,1.55-19.78,1.25-4.2-.76-9.13-.62-13.81.58-20.14,2.25-40.27,2.36-60.38,0-9.48.17-19.54-3.09-28.89a41.62,41.62,0,0,1-2.32-14.71c.13-7.32-.15-14.66,0-22a62.36,62.36,0,0,0-6.26-28.25c-3.6-7.72-7.69-15.35-10.17-23.62-1.28-4.27-4.88-7.1-7.4-10.57-5.25-7.23-9.76-15.12-16.14-21.42-3.63-3.59-7-7.63-11.61-10.16a6.32,6.32,0,0,1-1.37-.7c-7.76-8.08-17.76-12.9-27.1-18.7-2.21-1.37-4.66-1.54-7-2.23a93.15,93.15,0,0,0-31.67-10.7c-5.88-.8-11.76-1.73-17.53-2.88-8-1.6-16.08-3.27-24.08-5a77.64,77.64,0,0,0-27.22-1.38,46.47,46.47,0,0,1-6.43.61c-10.39,0-20.55.72-30.78,3.47a221.13,221.13,0,0,1-30.22,5.64c-6.18.77-11.85,3.42-17.67,5.81-7.54,3.08-13.56,9.13-21.84,10.52a6,6,0,0,0-4.71,3.36,4.09,4.09,0,0,1-1.56,1.91c-13,7.43-19.23,20.6-27.44,32.08a49,49,0,0,1-7.48,8.67c-10.29,8.94-19.44,19.05-29.33,28.39a25.3,25.3,0,0,1-5.44,4.36,11.34,11.34,0,0,0-5.59,6.11,6.92,6.92,0,0,1-3.56,4c-2.22,1-3.87.49-3.28-2.21,1.64-7.47.61-15.19,2.39-22.62a71.67,71.67,0,0,1,5.18-18c2.91-6.61,4.08-16.69-3.93-23.62-10.71-9.27-11.47-16-5.78-29.16,5.07-11.69,14.44-19.66,23.37-28.05l3.25-3c5.49-2.93,9.27-7.87,13.81-11.9,9.89-8.79,18.53-19,30.14-25.82,1-.58,1.93-1.69,3.11-1,1.35.81.7,2,0,3-.6.85-1.18,1.71-.32,2.67s2,.82,3.22.47c4.13-1.24,7.6-3.85,11.8-5.15,6.75-2.1,13.67-2.3,20.5-3.42,9.05-1.48,18.2-.54,27.29-1.67,10.17-1.26,20.15-3.26,30.2-5.12,13.82-2.57,27.89-3.77,41.74-6.22,16.15-2.86,32.25-6.21,47.13-13.53,2-1,6.72-2.39,2.32-6.35-2.33-1.4-4.76-2.81-3.64-6.15C597.06,83.74,598.22,81.91,601,83Z" transform="translate(-0.88 -0.9)"/><path class="cls-34" d="M673.06,710.87c4.05,1.35,8.63,1.5,11.79,4.91,1.17,1.26,2.62,1.16,4.07,1.3,2.84,2.63,3.68,6.48,5.79,9.56a19.48,19.48,0,0,1,1.77,3.19c2.53,5,5.3,10,6,15.71.31,5.9.68,11.78,1.25,17.67.94,9.67-.9,19.49-3.76,28.93-.5,1.62-1.84,2.72-2.92,4-1.86,2.17-3.79,4.6-3.91,7.36-.29,6.19-5.58,9.09-8.22,13.69-.22.38-.91.31-1.41.28-2.85-3.42-3.66-7.69-4.4-11.84-.52-2.94,1.54-4.78,4.51-4.67,3.25.12,4-1.54,3.9-4.29-.34-6.54.81-12.92,1.92-19.32.66-3.79,1.15-7.53,4.61-10.13,1.84-1.38,1.54-3.57.79-5.52-.82-2.16-2.28-.89-3.71-.71-3,.36-4.82-3.18-3.54-6.5.55-1.42,1.79-2.4,2.48-3.73.94-1.81,1.15-3.88-1-4.69s-3.17,1.15-3.87,2.91a3.34,3.34,0,0,0-.11,2.46c1.81,4.15.44,7.75-1.72,11.3-1.23,2-1.32,4,.52,5.9,2.8,2.84,1.69,5.37-.74,7.76a23,23,0,0,1-4.41,3.25c-6,3.55-7,3.12-8.88-3.65-.25,7.29-2.64,14.27-2.51,21.68.12,6.67-6.45,10.16-12.31,6.9a42.21,42.21,0,0,0-6.41-2.69c-3.17-1.12-5.77-1.34-7.29,2.48a3.56,3.56,0,0,1-3.71,2.08,14.09,14.09,0,0,0-5.86.91c-3,1.07-5-.09-6.7-2.67-4.26-6.39-6.77-13.25-6.61-21a15.76,15.76,0,0,0-2.43-8c-1.71-3.1-1.46-5.76,2.37-7.75-3.88.14-6.1,1.73-7.08,5.1-.66,2.3-2.19,4-4.68,3.62-3.12-.5-6.44-1.68-7.89-4.52-1.16-2.27,2.18-4.28,2.11-6.87,4.46-7.05,9.29-13.84,14.11-20.64,4.12-4.44,6.83-10.14,12.09-13.57,5.58-2.92,11.09-5.82,17.71-5.94,1.91,0,4-1.84,5.32-3.51C656,714,663.78,711,673.06,710.87Z" transform="translate(-0.88 -0.9)"/><path class="cls-35" d="M720.87,513.77c2.86,7.6,2.06,15.53,2.14,23.39,0,1.43-.51,3.5,1.17,4,2,.55,2.45-1.7,3.23-3.07.56-1,1-2,1.55-3a11.49,11.49,0,0,1-2.33,8.47,23.73,23.73,0,0,0-4.45,16,38.33,38.33,0,0,1-1.27,10.35.91.91,0,0,1-1.26.06c-1.87-3.5-1.18-6.94-.45-9.66-1.08,1.53-1.54,4.19-2.09,6.89a51.14,51.14,0,0,1-8.67,20.48c-1.64,2.23-2.71,4.57-2.09,7.42a1.94,1.94,0,0,1-1.1,1.69c-4.77.18-6.42-1.35-5.29-6.07.94-3.93.9-7-2.52-9.66-1.15-.87-1.17-2.28-.87-3.66s.38-2.72-.89-3.61c-1.69-1.18-2.69.5-3.9,1.17a32.72,32.72,0,0,0-5.14,3.86c-1.22,1-2.67,2.65-4.29,1.3s.23-2.63.8-3.89c.2-.45.42-.89.58-1.36A11.88,11.88,0,0,1,686,571.3a14,14,0,0,0,4-5.9,6.61,6.61,0,0,1,.65-1.16c1.89-2.41,4-4.67,4.2-8,.78-3.17,2.75-5.65,4.66-8.19a132.35,132.35,0,0,0,16.56-27.83C717.09,517.75,717.52,514.6,720.87,513.77Z" transform="translate(-0.88 -0.9)"/><path class="cls-36" d="M740.07,467.23c-1-.4-1-1.25-1-2.1,1.51-.55,1.08-2.35,2.09-3.23,2.45-1.55,4-3.88,5.69-6.17s3.85-3.15,7-2c2.9,1,3,2.95,3.25,5.39,1.08,9.92-4.33,18-7.71,26.5-3.71,9.34-7.39,18.68-10.84,28.11a145.41,145.41,0,0,1-5.89,14.12c-.88,1.77-1.24-.35-1.74-.89.47-15.58,4.07-30.77,5.68-46.21.55-5.26,3.93-8.42,8.17-10.93.81-2.2,3-3.45,4.12-6.2C745.66,464.92,743.79,468.62,740.07,467.23Z" transform="translate(-0.88 -0.9)"/><path class="cls-37" d="M673.06,710.87a2.33,2.33,0,0,1-2.85,2.1c-7.83-.66-13,3.28-18.13,8.85-3.27,3.57-7.59,7.78-13.93,5.32-2.07-.8-3.92.59-4.93,2.52-1.44,2.75-3.62,3.12-6.3,2.3-.71-1.92.68-3.15,1.63-4.39a228.38,228.38,0,0,0,15.41-23c1.57-1.69,2.35-4,4.1-5.53,1.26-1.11.86-3.44,2.91-4a8.81,8.81,0,0,0,9,4.38,5.81,5.81,0,0,1,5,1.54C667.93,704.08,669.27,708.48,673.06,710.87Z" transform="translate(-0.88 -0.9)"/><path class="cls-38" d="M720.07,570.05a8.56,8.56,0,0,1,.83-.23c8.86,7.58,9.9,17.44,2.56,24.24a11.76,11.76,0,0,1-14.67.79,2.77,2.77,0,0,1,.07-3.24c3.92-6.1,6.57-12.79,9.25-19.47A3.48,3.48,0,0,1,720.07,570.05Z" transform="translate(-0.88 -0.9)"/><path class="cls-39" d="M665,701c-2.63,0-5.27-.13-7.9,0-4.26.23-6.72-1.22-6.1-5.93,1.92-4.06,4-8.13.07-12.22,3.09-3.34,3.44-3.27,5.6,1.36,3-1.63,2.81-5,4.21-7.32.19-1.09,0-2.31,1-3.15a.76.76,0,0,1,1.26.29C664.77,683,661.75,692.2,665,701Z" transform="translate(-0.88 -0.9)"/><path class="cls-40" d="M720.07,570.05c-2.41,8.88-6.81,16.85-11.28,24.8a.68.68,0,0,0-.73.24,1.41,1.41,0,0,1-1.89.07c-1.46-.35-3,.34-1.92-2.79,1.82-5.42,6.43-9,8-14.55,1.32-4.57,3.61-8.92,3.64-13.77,0-3,3-3.63,4.14-5.83Z" transform="translate(-0.88 -0.9)"/><path class="cls-41" d="M816.79,807.1c-4.71-1.67-8.09-5.59-12.59-7.59-6.2-2.76-12.83-2.73-19.49-2.69-8.69.06-15.75-4.08-22.25-9.37A3,3,0,0,1,761,785c2.26-.45,3.67.92,5.23,2.24,4.67,4,10.08,7,16.22,6.61A47.32,47.32,0,0,1,819,807,1.72,1.72,0,0,1,816.79,807.1Z" transform="translate(-0.88 -0.9)"/><path class="cls-42" d="M663.09,674.05l-1.26-.29c1-6.76,4.13-12.45,8-18,8.67-12.35,16.93-25,23.12-38.82.9-.46.26-2.9,2.35-1.83.17,1,.45,2-.34,2.8-7.34,14.41-15.45,28.34-25.31,41.21C666.3,663.51,665.12,669,663.09,674.05Z" transform="translate(-0.88 -0.9)"/><path class="cls-43" d="M816.79,807.1,819,807a64,64,0,0,1,25,26c-.78-.18-2-.09-2.29-.58-6.69-9.43-14.33-17.87-24.25-24C817.09,808.19,817,807.55,816.79,807.1Z" transform="translate(-0.88 -0.9)"/><path class="cls-44" d="M761,785c-9.2-5.23-17.69-11.31-24-20,6.8,1.76,10.22,7.93,15.32,11.91C755.38,779.34,760,780.26,761,785Z" transform="translate(-0.88 -0.9)"/><path class="cls-45" d="M695.26,730a4.28,4.28,0,0,1-1.37-2.93c-.5-1.19-.62-2.16,1.16-2.1,5.35,4.59,12.24,7.45,15.81,14a1.49,1.49,0,0,1-2,.05c-2.83-.87-3.92-5.06-7.74-4C698.51,734.11,698.16,730.58,695.26,730Z" transform="translate(-0.88 -0.9)"/><path class="cls-46" d="M695,617.92c0-1-.05-2.07-.07-3.1-1.69-7.51,3.59-17.27,10.16-18.77l1.11-.89,1.89-.07c.11,1.46-.17,2.82-1.91,2.87-3.61.09-4.38,2.44-5.33,5.38C699.21,608.31,697,613.07,695,617.92Z" transform="translate(-0.88 -0.9)"/><path class="cls-47" d="M708.84,739.08l2-.05C717.14,743,720.63,749.36,725,755,718.37,751,714,744.58,708.84,739.08Z" transform="translate(-0.88 -0.9)"/><path class="cls-17" d="M856.87,849.11c-6.14-3.89-10.15-9.48-12.87-16.11C849.1,837.73,853.94,842.66,856.87,849.11Z" transform="translate(-0.88 -0.9)"/><path class="cls-48" d="M737,765c-4.53-2.7-9.3-5.11-11.95-10C730.91,756.07,733.92,760.59,737,765Z" transform="translate(-0.88 -0.9)"/><path class="cls-49" d="M695.05,725l-1.16,2.1c-2.28-3-4.31-6.18-5-10C693.52,717.73,693.24,722.16,695.05,725Z" transform="translate(-0.88 -0.9)"/><path class="cls-50" d="M695.26,730c4.78-1.61,4.28,2.91,5.84,5a114.37,114.37,0,0,1,7.39,27.43c1.64,11.43,1.12,23-3.92,33.68C701,803.67,698,811.81,692.79,818c-4.28,5.11-5.77,12.31-12.71,15.86-2.44,1.25-5.05,5.67-7.19,9-3.73,5.83-8.41,11-14.89,14-.66-2.68,1.66-3.71,3-5.26,2.43-2.87,5.85-4.93,7.18-8.71a314.87,314.87,0,0,0,22.49-32.22c5.92-9.7,12.7-19.08,13.61-31.12.68-9-.72-17.81-2.11-26.62-.41-2.59-.26-5.25-1.16-7.76C700.24,739.74,697.33,735,695.26,730Z" transform="translate(-0.88 -0.9)"/><path class="cls-51" d="M722.82,976.91c-.22-.1-1-.23-1.33-.68-.68-1-.11-1.88.51-2.71,4-5.3,7.92-10.65,12-15.9,9.94-12.88,20.82-24.75,34.42-34,4.34-3,8.39-6.47,12.7-9.57.93-.66,2.09-2.52,3.33-1.21,1.44,1.52.23,3.19-1.1,4.27-3.21,2.62-6.43,5.25-9.83,7.61-7.79,5.39-15.83,10.71-21.91,17.87-5.65,6.66-11.2,13.5-16.61,20.4-3.17,4-6.81,7.72-9.48,12.15A2.94,2.94,0,0,1,722.82,976.91Z" transform="translate(-0.88 -0.9)"/><path class="cls-52" d="M669,843.93c-1,4.18-5,5.93-7.39,9-1.12,1.41-2.38,2.7-3.58,4.05a18.87,18.87,0,0,1-7.57,8.55c-3.07,2-4.84,6-7.22,9.12-3.27,4.25-6,9-11.55,11-2.08.74-3,3-2.66,5.39-3.7,2.7-7.46,5.33-11.11,8.11-6,4.61-12,9.3-19.22,12.14-2.57,1-4.46,3.77-6.65,5.73-.94-2.1-2-1.22-3.43-.37-1.73,1-3.24,2.86-5.65,2.32.56-3.79,4.49-4.4,6.46-6.87,6-4.81,13.54-7,19.72-11.56,8.41-6.27,16.59-12.83,23.37-20.8,4.42-5.2,9.79-9.48,13.72-15.09,5.88-6.3,12-12.33,18.17-18.38C665.62,845,666.76,843.34,669,843.93Z" transform="translate(-0.88 -0.9)"/><path class="cls-53" d="M531.94,883.94c0-.3.07-.6.12-.89.22-4.12,4.39-6.37,4.9-10.35,2.3-7.32,6.77-13.59,9.93-20.5A247.8,247.8,0,0,1,562,825a2.88,2.88,0,0,1,1.6,2.46c-.21,2.76-1.78,5-3.09,7.26-6.06,10.5-10.49,21.82-16.77,32.92a14.85,14.85,0,0,1,7.68-1c5.63.79,11.21,1.6,16.46-1.56a2,2,0,0,1,1.46-.22c10.61,2.83,22.11,3.67,29.79,13.14,1.15,1.42,2.52,2.68,3.57,4.14,3.48,4.81,7.54,7.1,13.47,4.19a4.47,4.47,0,0,1,5.15.59c.94,2.66-1,4.05-2.61,5.38-8.21,7-16.78,13.52-26.76,17.89-1.39.61-1.85,1.8-2.6,2.86-11.79,8.45-9.52,6.72-19.61-2.26-5.9-5.25-11.73-10-18.77-13.48a29.74,29.74,0,0,0-8.94-2.95c-4.86-.67-6.59-5.18-10-7.6C531.27,886.24,531.4,884.89,531.94,883.94Z" transform="translate(-0.88 -0.9)"/><path class="cls-54" d="M563,827c-.34-.68-.69-1.36-1-2,2.7-7,6.55-13.42,10.51-19.75,7.55-12.08,13.89-24.92,22.65-36.25,6.59-6.28,10.72-14.41,16.16-21.55.89-1.17,1.77-2.35,2.65-3.52a1.36,1.36,0,0,0,2,1A227.27,227.27,0,0,1,602,765c-.88,3.42-3,6.24-5,9-11.34,15.77-21,32.56-30.55,49.4C565.66,824.85,565.49,827.13,563,827Z" transform="translate(-0.88 -0.9)"/><path class="cls-55" d="M369.21,679.15c2.63-1.08,1.68,1.11,1.82,2.1.48,3.56-.78,7.26.89,10.72-.28,9.83,1.52,19.45,3,29.11.34,6,.61,12,1,17.93a25.18,25.18,0,0,1-4,16.07c-1.58,0-1.55-.91-1.16-2,2-5.92,1.36-12,1-18,.57-7.11-1.25-14-1.79-21a95.19,95.19,0,0,0-1.69-20.63C367.48,688.58,368.25,683.85,369.21,679.15Z" transform="translate(-0.88 -0.9)"/><path class="cls-56" d="M342.15,877.94c-1-4.9,1.28-10-1.13-14.82,0-1.08-.1-2.15-.16-3.23,1.65-16.34,1-32.87,3.88-49.35,1.63.84.95,2.35,1.33,3.44q-1.59,30.82-3.2,61.64A10.7,10.7,0,0,1,342.15,877.94Z" transform="translate(-0.88 -0.9)"/><path class="cls-23" d="M370.8,753.05c.39.67.77,1.35,1.16,2-2,4.68-5.83,8-9.28,11.38-8,7.73-12.83,16.7-13.83,27.77a13.08,13.08,0,0,1-.92,2.82L346,799.47C345.64,778.84,358.33,766,370.8,753.05Z" transform="translate(-0.88 -0.9)"/><path class="cls-57" d="M537,872.7c1.23,4.81-3.08,7-4.9,10.35l-1.31-2.19Z" transform="translate(-0.88 -0.9)"/><path class="cls-3" d="M621.55,901c1.15.07,2.9.15,2.64,1.45-.39,2-2.52,2.32-4.34,2.46-1,.08-2.3-.35-2.09-1.49C618.11,901.53,619.76,901,621.55,901Z" transform="translate(-0.88 -0.9)"/><path class="cls-58" d="M560,929.05c-6.26,6.13-14.09,10.2-20.72,15.85-2.75,2.34-5.46,4.75-8.19,7.13-1.28-.33-2.64-1.11-3.81-.89-9.07,1.71-14.65-4.17-20.76-9.14-3.84-3.12-2-7.28-2.49-11,6.14-7.47,10.77-15.94,15.91-24.07a1.85,1.85,0,0,1,.93,1.67c-1,7.23,2.91,11.52,8.68,14.78a28.51,28.51,0,0,1,4.81,3.54c7,6.14,13.06,6.87,21.09,2.61C556.85,928.74,558.3,927.64,560,929.05Z" transform="translate(-0.88 -0.9)"/><path class="cls-59" d="M531.94,883.94c2.46,4.44,5.69,7.7,10.89,9.12,10,2.72,19.61,6.41,25.93,15.3,2.51,3.53,7.29,4.15,9.4,8.2.52,1,3,.65,4.61-.34,2-1.23,4-2.22,6.07-3.31a.67.67,0,0,1,1.09.22l-7,5.82-1,.07a106.82,106.82,0,0,1-16.61,6.39c-6.69,2.1-13,.23-18.25-3.95-4.32-3.43-8.53-6.88-13.61-9.12a14.08,14.08,0,0,1-1.72-1c-8-5.06-9.18-8.08-6.88-17.45C526.41,890,528.49,886.47,531.94,883.94Z" transform="translate(-0.88 -0.9)"/><path class="cls-60" d="M524.91,893.88c-1.81,10.71,4.72,15.56,13.29,19.07,3.4,1.39,5.92,4.07,8.71,6.37,6,5,12.59,6.67,20.57,4.35,4.89-1.41,9.37-4.06,14.5-4.65-6.54,5.1-15.18,5.57-22,10a14.06,14.06,0,0,0-2.79.93c-9.56,5.4-15.89,4.73-24.3-2.54A27,27,0,0,0,528,924c-7-3.74-10.19-9.16-8.08-17.13C521.51,902.54,522.57,898,524.91,893.88Z" transform="translate(-0.88 -0.9)"/><path class="cls-61" d="M615.91,744.94c-1.23.78-1.86.36-2-1,11.65-12.52,19.78-27.63,30.16-41.07,1.5.12,1.55,1,1.09,2.13-5,9.69-11.75,18.26-18.25,27Z" transform="translate(-0.88 -0.9)"/><path class="cls-62" d="M660.85,676.91a8.28,8.28,0,0,1-3.33,9.08c-.83.61-1.71,1.19-2.68.59-.8-.49-.62-1.36-.45-2.21,1.07-5.36-1.48-2.69-3.36-1.5-1.4.53-2.14,2.46-4,1.94.88-3.49,4.07-4.37,6.7-4.57A10.84,10.84,0,0,0,660.85,676.91Z" transform="translate(-0.88 -0.9)"/><path class="cls-39" d="M645.17,705c-.37-.71-.73-1.42-1.09-2.13.81-1.81,1.49-3.75,4-3.79A14,14,0,0,1,645.17,705Z" transform="translate(-0.88 -0.9)"/><path class="cls-4" d="M720.87,513.77C716,523.09,712,532.89,706,541.62c-3.45,5-8.16,9.16-10,15.17A31.69,31.69,0,0,1,691,565v0c-1.2,2.48-2.23,5.07-4.43,6.9l-1.68,2.79c-4.86,9.24-12.2,15.91-21.12,21.19-11.33,6.71-20.31,16-28.15,26.52a35.84,35.84,0,0,1-7.63,7.87c-4.46,3.2-9,1.38-10.12-4.05-.73-3.64-.15-7.28.42-10.92,1.4-9,3.27-18.07.34-27.17-.82-2.54-1.46-5.14-3.19-7.26-5-7.18-12-12.21-18.79-17.38-2.75-2.1-5.66-4-8.51-6a163.15,163.15,0,0,1-22.05-21.61c-7.51-8.76-13.86-10.23-24.29-5.56-6.1,2.73-11.27,2.48-16.55-2.09-9.46-8.19-16.34-9.87-30.33.39a66.07,66.07,0,0,1-22.45,10.55c-10.67,2.81-20.79,7.07-30.75,11.72-8.1,3.78-13.35,10.13-16.43,18.53-3.39,9.21-3.64,18.9-4.81,28.46-1.34,10.93-14.08,22.83-24.34,22.66a10.64,10.64,0,0,1-6-1.72l-.88-.91c-2.8-10.94-5.68-21.85-8.34-32.82A23,23,0,0,0,376,575.4a128.52,128.52,0,0,1-29-62.62c-1.93-11.32-4.17-22.58-6-33.91-2.64-16.39-.66-32.9-1-49.36,0-1.49,0-3,0-4.47-1.31-3.08.52-5.5,1.88-7.88A35,35,0,0,0,346,406.51c2.83-14.37,7.57-28.25,10.8-42.51,2.72-11.65,4.5-23.49,7.06-35.16,3.64-16.6,10.67-31.82,19.43-46.29A202.11,202.11,0,0,0,393,263.42c4.79-8.78,8.56-18,12.4-27.25,3.5-8.36,7.83-16.32,14.56-22.35,4.58-4.11,9.16-8.52,15.23-10.83,7-2.64,13.08-7,19.94-10.05a104.75,104.75,0,0,1,23.25-6.84q13.89-2.67,27.75-5.46a202.35,202.35,0,0,1,27.56-3.13c10-.61,19.91-1,29.81.52,7.18,1.09,14.07,3.46,21.27,4.67,8.26,1.38,16.51,3,24.77,4.5a117.06,117.06,0,0,1,31.05,10,112.05,112.05,0,0,1,34.31,21l0,0a75.58,75.58,0,0,1,18.3,17.91c4.65,6.36,9.5,12.59,14,19.11,5.47,8,8.64,17.08,12.92,25.64,7.17,14.35,7.5,29.88,7.33,45.3a169.22,169.22,0,0,0,3.58,35.13c2.8,14.1,2.76,28.3,1.51,42.51-.87,9.91-.71,19.83-.89,29.74-.3,17.42-1,34.81-2.06,52.19a1.86,1.86,0,0,1-.66,1.25Z" transform="translate(-0.88 -0.9)"/><path class="cls-63" d="M616.09,579.82c4.69,6.33,6,13.61,5.42,21.22-.54,7.3-1.65,14.55-2.28,21.84-.23,2.76-.52,6.09,2.63,7.49,3.33,1.47,5.68-.91,7.75-3.14,6.54-7.06,11.51-15.47,19-21.75,2.93-2.45,5.53-5.28,8.89-7.19a93.7,93.7,0,0,0,27.35-23.64,3.36,3.36,0,0,1-.81,2.76,4.93,4.93,0,0,0-1.17,2.07c3.55-1.89,6-5.23,9.68-6.9,1-.44,1.15-2.92,2.86-1.47,1.56,1.3,4.53,3,3.17,5-2.31,3.38.15,4.38,1.87,5.82,2.43,2,2.57,4,1.29,6.91-2.11,4.8-1.08,6.55,3.31,7.24-4,1.41-5.86,4.53-6.95,8.37-1,3.49-2.14,6.94-3.21,10.4L693,617c-.1-1,0-2.66-.36-2.8-1.76-.63-2.5,1.17-3.31,2.18-7.65,9.5-15.89,18.58-21.53,29.53-4.38,8.5-11.94,14.7-16.64,22.78C645.06,679,635.76,685.13,626,691c-8.67,4.11-18.41,5-27.13,9.13-6.15,2.91-9.14,1.76-13.1-3.62-2.38-3.24-5.81-5-9.51-6.06A47,47,0,0,1,558,680.92c-8.65-7.43-19.69-7.23-30.41-6-5,.57-10,.38-14.91,1.08a8.44,8.44,0,0,1-5.72-1.4c-4.13-2.61-8.64-3.13-13.39-3.08-7.31.07-14.62,0-21.73-2.24a13.39,13.39,0,0,1-7-5.1c-3.07-4-6.05-8.24-10.2-11.39-7-5.34-9.07-13.69-12.51-21.17a3.5,3.5,0,0,1,.46-3.34c3-.92,3.06,1.81,3.82,3.29,3.94,7.68,9,14.27,16.28,19.17,8.36,5.6,17.28,8.33,27.33,7.13a5.49,5.49,0,0,1,3.39.48c.84,1.9,2.14,1.64,3.14,1a2.18,2.18,0,0,1-2.56-.43c.59-3.66,4.12-3.93,6.47-5.36,7.46-4.53,7.75-7.8.9-13.32-2.85-2.29-6.12-3.89-9.14-5.9-1.58-1.05-4.21-1.79-2.91-4.74,4.23-1.18,6.8,2,9.79,3.87,2.73,1.7,4.67,1.61,8,.49,8.39-2.8,16.3-7.52,25.57-7.53,4.58,0,9.11-1.08,14.2-.91-1.83-4.73-6-5.11-9.16-6.91-1.73-1-5-.46-4.47-4,5.27-1.18,14.37,2.48,16.94,6.81,2.23,3.74,1.6,7.85-1.67,11-2.84-1.32-4.6-.36-5.39,2.61-2.09,2-4.82,2.08-7.43,2.44A27.64,27.64,0,0,0,524,641.57c-2.83,1.86-2.87,4.09-.32,6,9.07,6.81,18.37,12.88,30.65,8.63,3.28-1.14,6.82-1.5,10.21-2.35,3.78-1,7.51-1.25,11.25.27s7,.32,8.88-3.21c3.84-7,8.55-13.53,11.93-20.74,3.51-7.49,3.49-15.8,3.83-23.93.07-1.64-.57-3.3.15-4.92,3-1.6,2.84,1.76,4.33,2.7,4.87-3.56,6.13-10.21,11.48-13.5,1.73-1.06.54-3.37.08-5.13S614.35,581.79,616.09,579.82Z" transform="translate(-0.88 -0.9)"/><path class="cls-35" d="M443.07,627.85c0,1-.31,2.17.1,3,3.68,6.93,5.13,15.52,11.84,20.17a28.46,28.46,0,0,1,8.51,9.08c5.78,10.33,15.47,9.14,24.49,9.83,7.4.57,14.5.19,21.71,3.91,4.38,2.26,10.92.32,16.48-.33,10.95-1.28,22.9-2.51,31.22,5.32,7.89,7.42,18.15,8.21,26.47,13.61a8.64,8.64,0,0,1,3.5,3.36c2.22,4.49,5.38,6,9.88,3.42,8.12-4.66,18-3.73,25.9-8.7,1-.62,1.91.17,2.82.52-3.61,3.47-8.4,4.59-12.93,5.77-2.75.71-5.58,1.15-7.9,2.71-6.15,4.13-13.42,6.2-19,11.54-5.11,4.91-9.32,4.16-16.26.41-11.34-6.12-22-13.76-35.28-15.75-7.19-1.09-14.52-2-21.38-4.24-15-4.92-31.16-3.57-46-9.17-7.73-2.92-14.28-7.86-21.09-12.2-3.32-2.12-5.36-6.68-7.26-10.5-3.42-6.83-8.16-13-10.77-20.21-.17-.46-.41-1.09-.79-1.24-7.85-3.2-12.15-11.44-20.38-14.22-4.23-1.42.92-3.55-.07-5.63-5.49,2.85-11.1,5.16-16.83.53,7.63,2.73,13.37.37,19.34-5.08,7-6.38,10-13.67,10.4-22.75a82.6,82.6,0,0,1,3.07-19.2c3.22-11.35,10.22-19.06,21.1-23.71a314.1,314.1,0,0,1,33.34-12,52.84,52.84,0,0,0,18.3-9.94c7-5.7,18.48-9.2,27.42-1.51,1.26,1.08,2.77,1.9,3.92,3.08,4,4.09,8.34,4.11,13.21,1.68,3.1-1.54,6.15-3.42,9.8-3.47a19,19,0,0,1,15.42,7,193.29,193.29,0,0,0,23.8,24.07c-2.68,1.82-4.5-.32-6.05-1.73-2.19-2-4-2.53-7-1.49-3.89,1.35-8,2.1-11.9,3.58-7.55,2.89-14.92,2.45-22.27-.58-1.5-.62-3.24-2-3.68,1.08-7.57-.09-15.23.79-22.55-2.06a19.26,19.26,0,0,0-13.22-.14c-16.27,5.29-32.54,10.59-48.37,17.09-3.79,1.54-6.1,4.82-8.81,7.61-8.07,9.94-9.91,21-5.77,33,1.07,3.12,2.44,6.15,3.36,9.34C443.45,624.35,444.38,626.09,443.07,627.85Z" transform="translate(-0.88 -0.9)"/><path class="cls-25" d="M601,83c-4.81,2.58-5,3.86-1,9.07a43.89,43.89,0,0,0-13.84-1c-18.47,1-36.76-2-55.2-2.14-17.71-.13-34.48,2.63-50.78,9.83a159.76,159.76,0,0,1-31.69,9.92A37.21,37.21,0,0,1,442,109c-1.68.05-1.25-1.11-1.11-2.07h0c2.33-2,5.18-3,8.05-3.88,7-5,15.16-7.29,23.1-10.07,1.46-.51,2.49-1.53,3.87-2,10.34-2.64,20.78-4.92,31-8h0a35.21,35.21,0,0,0,11.19-2.2,74,74,0,0,1,24-3.72c16.11-.08,32.28-.93,48.27,2C594.17,79.71,597.91,80.54,601,83Z" transform="translate(-0.88 -0.9)"/><path class="cls-64" d="M641,197.74c-19-7.75-39.5-9.14-58.89-14.67-27.3-7.78-54-4.95-81-.4C486,185.21,471,188,456.61,193.57a142.75,142.75,0,0,0-28.52,15.27c-9.35,6.33-15.72,15.09-20.2,25.39-4.38,10-7.84,20.5-13.82,29.79-4.3,6.7-7.22,14.14-11.33,21-.94,1.56-1.84,3.15-2.81,4.69-.71,1.12-1.45,2-2.64.64-2.79-3.08-4.11-.51-5.05,1.53-2.08,4.48-4.51,9-2.28,14.24.8,1.88.29,4-.37,5.87-6,16.93-8.56,34.59-11.51,52.18q-5.83,23.47-11.65,46.95c-1.26,5.07-5.61,8.7-6.43,14-.21.26-.59.51-.6.77-.33,14.74-.66,29.48-.88,44.23,0,1.75.79,3.52-.17,5.3-1.91.07-1.25-3.15-3.05-2.55S334,475.3,334,476.74c0,9.61-1.16,19.42.36,28.78,1.41,8.72,2.28,17.55,4.09,26.2a40.43,40.43,0,0,1,.51,7.43c0,1.13.15,2.47-1.64,2.44-1.58,0-2.18-.69-2.29-2.42-.18-2.72,1-5.68-1.14-8.14-7-30.49-7.27-61-.19-91.54.36-1.55-.36-3.38,1.12-4.66,1-5.33,1.63-10.65-.94-15.77v0c-.15-1.07-.29-2.14-.44-3.19,2.07-.76,2.71,4.81,5.34,1.1,2-7.18,2.17-14.53,2-21.91-.12-3-.18-5.71,2.3-8.17,1.69-1.67,1.13-4.55.68-6.74-1.35-6.44-.78-12.92-.73-19.38a438.83,438.83,0,0,0-1.94-44.7c-.5-5.36,1.53-10.46,1.92-15.76.74-10.07,1.93-20.11,3-30.15a8.75,8.75,0,0,1,.9-2.25c.38,8.1-1.41,16.08-1.66,24.26a4.79,4.79,0,0,0,4.84-4.32c.64-3.31,3-4.66,5.61-6.4,5.15-3.47,10.18-7.25,13.52-12.74a7.44,7.44,0,0,1,2-2.22c8-5.66,14.42-13.14,21.4-19.91,6.72-6.52,11.08-15.09,16.5-22.75,4.13-5.82,8.65-11.35,15.15-14.79.44-.23,1.08-.24,1.37-.57,7.24-8.36,18.46-9.74,27.1-15.47,11.93-7.91,25.88-6.66,38.71-10.23,4.9-1.36,10.13-1,14.78-3.62,4.24-2.36,9.39-1.67,13.85-1.83,14.89-.55,29.82-2.39,44.75-.41,1.92.25,3.38,1.41,5.09,1.76,8.15,1.65,16.44,2.73,24.52,4.67,8.38,2,17,2.59,25.4,4.81,7.7,2,14.24,5.71,21.27,8.73q.51.34.3.6A.55.55,0,0,1,641,197.74Z" transform="translate(-0.88 -0.9)"/><path class="cls-32" d="M333.91,419.06c3.47,5.07,2.9,10.38.94,15.77C335.32,429.53,335.48,424.24,333.91,419.06Z" transform="translate(-0.88 -0.9)"/><path class="cls-21" d="M507,83c-6.16,3.68-13.34,4-20,5.86-3.53,1-7.06,2.87-11,2.12C486,87.2,496.47,85,507,83Z" transform="translate(-0.88 -0.9)"/><path class="cls-21" d="M449,103a27.23,27.23,0,0,1-8.05,3.88A8.29,8.29,0,0,1,449,103Z" transform="translate(-0.88 -0.9)"/><path class="cls-20" d="M657.31,119c10.38.36,19.52,2.79,25.34,12.72a18.91,18.91,0,0,0,9.8,8.11c6.24,2.31,7.94,8.75,10.74,13.85a238.09,238.09,0,0,1,12.09,26.55c2.86,7.16,5.3,14.53,8.61,21.52,3.71,7.84,3,14.3-2.37,19.16-5.95,5.39-12.66,3-18.76.77-7.22-2.65-13.08-7.78-18.58-13.11a30.22,30.22,0,0,0-9.74-6.72c-5.27-2.12-6.26-8.32-10.3-11.81-2-1.69-3.15-4.25-4.86-6.26-1.15-1.35-2.18-3.21-1.86-4.49,1.47-5.94-1.08-12.41,2.44-18,1-1.62.69-2.88-.3-4.53-2.27-3.78-5.68-5.9-9.48-7.77a19.06,19.06,0,0,1-9.59-21.92c1.35-4.76,5-7.51,10.83-8C653.3,118.88,655.32,119,657.31,119Z" transform="translate(-0.88 -0.9)"/><path class="cls-20" d="M728.82,486.93c2.19-31.2.93-62.53,3.48-93.72,1-11.79-1.12-23.22-3.53-34.61a139.82,139.82,0,0,1-3.18-36.19c1.61-31.25-11.1-57.2-29.81-80.94a211.47,211.47,0,0,0-20.94-23.32c3.14-.12,5.95.19,6.52,4.19a2.63,2.63,0,0,0,1.56,1.82c5.62,1.31,8.07,6.5,10.89,10.28,5.73,7.7,11.71,15.34,16.79,23.45,4.58,7.29,7.34,15.79,10.44,23.93,1.78,4.67,5.2,8.44,6.05,13.75.61,3.85,2,7.58,1.95,11.64-.13,8.48.08,17-.08,25.46a59.85,59.85,0,0,0,2.74,18.54c1.89,6.29,1.32,13.17,1.88,19.73.61,7.24.36,14.39.31,21.54-.07,8.09-1.89,16.22-1.41,24.24.66,11.08-2.23,22.15.3,33.17a2.29,2.29,0,0,1,.14,1c-3.31,11.6-.72,23.75-3.39,35.4C729.47,486.53,729.06,486.71,728.82,486.93Z" transform="translate(-0.88 -0.9)"/><path class="cls-20" d="M641,197.74a4.81,4.81,0,0,1,.1-.84c6.55,0,11.26,4.23,16.2,7.58,6.15,4.16,13.8,6.48,17.58,13.7C664.33,210.16,652.64,204,641,197.74Z" transform="translate(-0.88 -0.9)"/><path class="cls-65" d="M740.07,467.23c3.38-.21,4.95-3,7.18-4.93,1-.81,2.08-2.07,3.41-.85,1,.94.36,2.28-.24,3.21-1.43,2.17-2.69,4.61-5.65,5.12C744.14,467.21,741.09,469.07,740.07,467.23Z" transform="translate(-0.88 -0.9)"/><path class="cls-66" d="M563,827c11.7-21.49,24-42.63,39-62,.57,2.79-1.16,4.68-2.74,6.45.65,1.46,1.85.57,2.7,1.08,5.68,3.37,5.71,3.33,8.6-2.59,1.27-2.61,8-5,10.61-3.72.62.3,1.32.7,1,1.43a2.19,2.19,0,0,1-1.42,1.16c-5.9.73-5.39,3.63-2.64,7.43,2,2.73,2.08,5.9,1.89,9.1-.45,7.61,3.84,13.57,6.93,20,.07.14.23.24.34.37,1.06,1.27,2.93,1.41,3.5.4,2.37-4.23,9.38,2.79,10.18-4.33.24-2.18,1.3-3.24,3.2-2.64,3.92,1.23,8.47,1.15,11.55,4.22s5.16.28,7.69-.33,2.82-2.66,2.58-4.71c-.94-8.07,2.67-15.73,2.06-23.76-.09-1.18.1-2.62,1.41-2.9,1.83-.4,1.2,1.51,1.76,2.34,1.42,2.06-.48,6.16,2.19,6.46,2.25.25,5-2.08,7.22-3.69,4.47-3.21,4.51-4.21.57-8.25-1.54-1.6-.91-3-.18-4.52,1.93-4.14,5.38-7.67,2.28-13.17-1.42-2.52,1.26-5.54,4.22-7.06,2.06-1.06,3.32.07,4,1.64,1.28,2.85,1.63,5.63-1.49,7.85-2.91,2.07-2,4.51-.25,6.88,2.2.61,2.32-5.85,5.48-1.54,2.46,3.35,2.5,8.83-.37,10.13-2.24,1-2.75,2.52-3.16,4.56-1.64,8.31-3.27,16.6-2.74,25.15.2,3.09-.09,5.26-4.37,4-3.89-1.1-5.29.68-4,4.61,1,3.27,3.2,6.24,2.43,9.95,1.13,1.42.18,2.53-.64,3.53-1.92,2.33-2.76,5.5-4.6,7.59-5,5.65-8,12.79-14.11,17.65-4.5,3.58-8.77,7.58-11.82,12.69-2.14,3.56-5.82,5.87-8.32,9.2-4.92,7-12.56,11.42-17.49,18.43-1.34,1.9-3,2.49-5,.91a11.2,11.2,0,0,0-6.78,1.23c-4.5,2.33-7.46,1.75-10.33-2.64-1.95-3-5-5.26-7.16-8.23a12.7,12.7,0,0,0-6.67-4.94c-6.18-1.86-12.26-4-18.39-6.05a5.31,5.31,0,0,0-5.21.62C563,869.73,559,869.2,555,868.53c-4.57-.77-9.21-1.71-13.55,1.89C548.46,855.73,554.9,841,563,827Z" transform="translate(-0.88 -0.9)"/><path class="cls-67" d="M643,867c7.2-8.44,12.86-18.33,22.75-24.23,1-.61,1-1.61,1.46-2.45a33.71,33.71,0,0,1,6.36-8.65c4.17-4.07,5.45-10.27,9.46-14.62,1.62-5.18,8.79-6.92,8.2-13.71-.17-2,1.29-4.57,2.79-6.09,5.71-5.81,5.54-13.32,7.37-20.5,2.77-10.81-2.11-21-.39-31.48,5.82,20.28,8.25,39.91-4.66,59.15-8.93,13.32-17.26,27-27.35,39.53L647.13,865.1C645.85,866,645.34,868.52,643,867Z" transform="translate(-0.88 -0.9)"/><path class="cls-66" d="M630,793.11c0,.82,0,1.64,0,2.46,0,1.18-.17,2.57-1.47,2.81-1.75.32-1.42-1.39-1.66-2.37a19.88,19.88,0,0,1-.78-4.79c0-1.58-1-4.27,1.62-4.31,2.06,0,2.32,2.36,2.31,4.24,0,.65,0,1.31,0,2Z" transform="translate(-0.88 -0.9)"/><path class="cls-66" d="M609.76,766.92c-.38,1.15-.89,1.81-1.83,1.7a2,2,0,0,1-1.74-2.46c.09-.83.53-1.68,1.55-1.44A3,3,0,0,1,609.76,766.92Z" transform="translate(-0.88 -0.9)"/><path class="cls-63" d="M691,565a27.22,27.22,0,0,1,4.95-8.19C696,560.55,693.84,563,691,565Z" transform="translate(-0.88 -0.9)"/><path class="cls-63" d="M686.54,571.86c1.28-2.43,2.41-5,4.43-6.9A7.29,7.29,0,0,1,686.54,571.86Z" transform="translate(-0.88 -0.9)"/><path class="cls-68" d="M643,867c1.74.16,2.63-1.55,4.15-1.88a262.59,262.59,0,0,1-23.87,25.82c-9.8,9.46-21.63,15.69-33.32,22.21l-1.1-.22c.28-1.1.64-3.18.84-3.16,6,.45,7.8-7.3,13.67-6.92a1.7,1.7,0,0,0,1.31-.61c3.82-5.81,10.84-7.9,15.16-13.1A14.74,14.74,0,0,0,621,887c.82-.07,2.24.11,2.38-.24,2.79-6.63,10.48-8.53,13.9-14.56A11.21,11.21,0,0,1,643,867Z" transform="translate(-0.88 -0.9)"/><path class="cls-69" d="M466.11,360.89c-19.27-8.42-39.19-12.47-60.25-9.11a82.57,82.57,0,0,1-10.41,1c-3,.09-3.81-1.56-2.51-4.23.29-.59.63-1.17,1-1.74,11.7-19.35,32-27.86,53.91-22.88,16.84,3.84,33.51,8.46,50.76,10.4,10.92,1.23,16.49,8.35,18.32,18.8,1.53,4.93.55,9.79-.9,14.48-1.19,3.85-6.4,6.13-11.76,5.48-10.46-1.27-20.22-5.07-29.95-8.8C471.56,363.22,468.66,362.45,466.11,360.89Z" transform="translate(-0.88 -0.9)"/><path class="cls-70" d="M590.13,373.11c5.24-15.86,16.61-20.91,32.58-19.79a269.75,269.75,0,0,1,48.77,7.56c16.23,4.2,25.9,14.95,29.59,31.12,1.22,5.34,2.47,10.73,2.25,16.28-.07,1.82-.22,3.87-2.11,4.77-2.11,1-3.93-.26-5.43-1.57s-3.45-2.88-4.41-4.72c-6-11.5-16.25-15.53-28.2-16.91-10.15-2.53-20.49-3-30.9-3.54-5.6-.29-11.28-1.4-16.8-.64a106.47,106.47,0,0,1-15.32,1.1C587.84,386.74,586.38,384.74,590.13,373.11Z" transform="translate(-0.88 -0.9)"/><path class="cls-71" d="M466.11,360.89l32,9.47c.48.14,1,.29,1.44.39,12.89,2.79,18.22-1.89,17.36-15.17-.06-.82,0-1.65,0-2.47,2.24,2.62,1.38,5.83.93,8.56a8.5,8.5,0,0,0,1.63,6.86c9.13,12.36,7.69,25.66,3.77,39.23-.73,2.53-2,4.95-4.84,5s-3.42-2.8-4.45-4.84c-3-5.88-4.68-12.31-8.73-17.72-2.16-2.89-5-4.8-7.65-7-.9-.76-2-1.63-3-.43s0,2.19.78,3c3.88,3.94,7.23,8.23,8.82,13.63.68,2.3,2.08,5.08-2.14,5.59-2.49.78-3.93-1.1-5.59-2.28a22.74,22.74,0,0,0-6.35-3.66c-7.57-4.94-15.44-8.94-24.67-10-15.26-1.7-29.73,1.53-44,6.28a4.92,4.92,0,0,0-3.69,3.7,2,2,0,0,1-.94,1.13c-2.48-.24-4.25-1.12-3.28-4.06.43-1.31-.37-2.13-.78-3.18a12.3,12.3,0,0,1,7.5-15.77c6.43-1.2,12.59-3.65,19.15-4.16,13.92-1.07,27.74-.8,41.21,3.49a13.45,13.45,0,0,1,2.73,1.17,14.1,14.1,0,0,1,1.85,1.06c-2.89-2.24-6.61-3.21-10.44-4-1.75-.38-4.19.12-4.78-2.56,1.16-.05,2.32-.07,3.47-.14,2.8-.16,3.3-1.6,1.48-3.45-2.37-2.41-3.68-6.18-7.8-6.57C466.7,361.93,466.42,361.26,466.11,360.89Z" transform="translate(-0.88 -0.9)"/><path class="cls-72" d="M484.14,498.91l2.29,4.12c.65-9.88,7.83-11.55,14.55-14.16,8.91-3.46,15.72.72,22.61,5.22,4.45,2.91,8.84,5.9,14.1,7.3,3.4.91,6.24.82,9.27-1.58,5.87-4.65,12-9.47,20.29-5.84,7.41,3.25,13.58,7.91,16.37,15.94,1.51-3.42,1.32-7.09,1.34-10.74,1.33,1.36,1.48,1.35,1.62,5.59.16,4.49-.49,8.9-3,12.76-1.73,2.69-4.27,4.2-7.58,3.64s-4.61-3-5.28-5.87c-.73-3.12-1.37-6.18-4.52-7.84-7.32-4.22-12.43-2.36-17.16,6.82,6.5-3.18,11.77.42,17.37,1.74,3.31,1,6.8,1.7,6.69,6.36-.05,1.8,1.4,1.9,2.78,1.93s3-.53,4.12.8c-5.54,3.35-11.22,3.06-16.88.44-5.18-2.4-10.1-5.73-16.09-5.37-4.32.26-8.51,1.38-13,1-3.7-.31-7.17-.7-10.46-2.45-4.85-2.58-9.9-1.87-15.05-1.1s-10.43,1-15.58-.48c.14-3.64-2.9-5.26-4.82-7.6-2.34-2.85-5.62-5.22-4.94-9.62A2.17,2.17,0,0,1,484.14,498.91Z" transform="translate(-0.88 -0.9)"/><path class="cls-73" d="M538.82,557.44c.12-1-1.64-1.59-.84-2.6,1.06-1.32,2.37-.59,3.62,0a43,43,0,0,0,10.51,2.77c9.17,1.57,16.29-5.24,24.93-5,2.7-5.58,4-.2,5.75.82,2.1,1.25,3.71,3.35,6.4,3.54,10.15,6.24,19.75,13.13,26.9,22.9-.17,2,1.08,3.46,1.74,5.13,1.51,3.8,2.06,7.14-3,8.67a3.9,3.9,0,0,0-2.56,2.9c-1,4.18-5.36,6.19-6.55,10.24a1.37,1.37,0,0,1-1.11.69,1.88,1.88,0,0,1-1.45-1.79c-.22-1.79,0-3.76-2.14-4.67-2.25.48-3-1.59-4.45-2.56-1-1.22-1.7-2.71-2.88-3.83C580.74,578,564,567,543.91,560.86,541.91,560.25,539.59,560,538.82,557.44Z" transform="translate(-0.88 -0.9)"/><path class="cls-74" d="M587.06,415c-2.93-3.23-.72-6.4,1.19-8.33,2.94-3,6.4-5.82,10.91-6.51.29.36-.57,1.51.84,1.12,24.39-6.76,46.42-1.27,66.83,12.82a30.13,30.13,0,0,1,6,5.9c.53.63.71,2.12,2.12,1.07,3.86,7,.83,13.5-6.92,14.94.53-7.08-3.69-10.68-9.54-13.21a26.27,26.27,0,0,1-6.94-4.74c-4.29-3.9-9.56-4.41-14.78-5.82-10.33-2.78-20.62-1.83-31-1.1C599.36,411.57,593.43,414.33,587.06,415Z" transform="translate(-0.88 -0.9)"/><path class="cls-75" d="M590.13,373.11C588.8,385.19,588.8,385.22,601,385a355.33,355.33,0,0,1,55.62,2.89c2.25.31,4.64.5,6.58,2a333.16,333.16,0,0,0-34.57-3.22c-6.31-.23-12.21-1.36-18.52,2.18-7.19,4-15.79,5.12-22.15,11.39-4.71,4.65-7.41,10.41-10.75,15.79-1.42,2.29-2.63,4.72-5.17,4.5-3.21-.27-2.94-3.39-3.07-5.9-.67-13.14,3.53-24.45,12.8-33.77C584.42,378.13,588.9,377.39,590.13,373.11Z" transform="translate(-0.88 -0.9)"/><path class="cls-76" d="M587.06,415c7.8-4.73,16.64-5.18,25.35-5.91a141.89,141.89,0,0,1,14.44-.06c7.42.14,15.3,1.44,21.22,4.82a123.13,123.13,0,0,1,19.12,13c3,2.57,2.11,6,.82,9.18-7.84.9-15.71,1.66-23.53,2.76-2.61.37-4.9-.62-7.35-.83-8.33-.7-16.64-1.38-24.38-5.32-6.7-3.41-14.29-4.13-21.59-5.61-2.08-.42-4.38-.86-3.19-4,6.35-.26,12.41,1.68,18.6,2.62,3.59.55,6.21,1.07,6.16-3.85,0-1.3.24-3.2,2.55-2.76,1.33,1.48,1.35,3.35,1.32,5.13-.07,4.4,2.31,6.26,6.3,7.49,5.78,1.77,11.75,1.3,17.56,2.34,2.92,1.71,5.76.36,8.61-.27,3.06-.68,6-2,9.06-2.54,2.37-.4,4.17,2,7.82,1.11-8.85-9.51-19.34-14.69-30.76-18.5-11.85-4-23.59-1.48-34.77.22,2.73-.09,2.73-.09,4.7,1.8-1.89,2-4,2-6.18.59C595,415.58,590.83,417.05,587.06,415Z" transform="translate(-0.88 -0.9)"/><path class="cls-77" d="M472.94,408.18c-7.39,8-15.55,5.21-23.76,1.73-5.49-1.67-6.81-6.22-7.47-11.08-.27-1.94,0-4-.11-5.94,1.94-1.51,11.09-2.55,12.75-1.5a2.37,2.37,0,0,1,1.17,2.5c-.29,1.71.42,3.21.79,4.78-1.17,2.37-2.39,4.76,2.11,4.44,3.73-.33,5.86-2.23,5.82-6.08,0-2.47,0-4.8,3.17-5.23,3-.41,5.68.34,7.25,3.18.88,1.59,1.24,3.43,2.11,5C477.16,403.53,476.74,406.65,472.94,408.18Z" transform="translate(-0.88 -0.9)"/><path class="cls-78" d="M615.05,419.12c-1.92,2.15-.85,4.73-1,7.13-.11,1.34-.11,3.17-2,2.41-6.88-2.72-14.37-2.22-21.34-4.31A16.57,16.57,0,0,1,588,423c-2-4-.28-5.72,3.77-6,2.4-.17,4.88.47,7.21-.61,2-.51,4.23.25,6-1.34,1.71-2,4.11-2.23,6.51-2.43,2.11.07,4.43-.14,5.31,2.42A3.09,3.09,0,0,1,615.05,419.12Z" transform="translate(-0.88 -0.9)"/><path class="cls-79" d="M358.08,364.12c-.63-6.57,1.14-12.89,2.57-19.13,2.5-11,3.77-22.24,8-32.82a8.14,8.14,0,0,0,0-5.85c-3.64-7.51.8-13.19,4.45-18.56,2.77-4.08,4.4-.63,5.37,2.62,4.89-7.23,8.28-14.93,12.25-22.29.88-1.64,1.45-3.33,3.33-4.07-3.95,9.92-9.34,19.08-14.67,28.27-11.34,19.57-15.36,41.35-19.29,63.17C359.58,358.37,359.63,361.44,358.08,364.12Z" transform="translate(-0.88 -0.9)"/><path class="cls-78" d="M472.94,408.18c1.38-2.57,3.46-4.88,3.11-8.11l-.09-.77c-.47-3,.07-5.25,3.73-5.36,3.39.31,5.68,2.9,8.62,4.16,3.18,1.8,6.63,3.11,9.57,5.35,1.32,1,2.9,1.73,3.06,3.67-2.52,3.67-6.62,2.15-9.9,2.57-4.77.62-9.56.71-14.05,2.73a4.33,4.33,0,0,1-4.73-.39C470.54,410.6,473.61,409.65,472.94,408.18Z" transform="translate(-0.88 -0.9)"/><path class="cls-80" d="M674.93,421.05v2.45c-22.49-22.08-48.9-28.6-80.11-19.65l4.34-3.71c25-7.45,47.66-1.62,68.75,12.53C671,414.76,672.71,418.15,674.93,421.05Z" transform="translate(-0.88 -0.9)"/><path class="cls-81" d="M548.08,395.82c1.25,19.3,1.46,38.52-3.81,57.36C541.93,433.83,545.65,414.86,548.08,395.82Z" transform="translate(-0.88 -0.9)"/><path class="cls-82" d="M469.9,372.12c3,.7,6.12,1.31,9.13,2.13a18.19,18.19,0,0,1,11.1,8.05c-23.76-11.31-47.34-10.47-71.27-3-.35-1,1.09-1.27,1.32-2.16,7-4.39,14.91-5.41,22.86-6C452,370.55,461,371.28,469.9,372.12Z" transform="translate(-0.88 -0.9)"/><path class="cls-83" d="M442.14,392.88c.58.46,1.62.57,1.29,1.74-1.88,6.52,1.37,11.11,5.74,15.29.66,2.15-.79,2.06-2.16,2-7.82.67-18.79-6.73-19.52-13.16C431.27,394.09,436.26,392.37,442.14,392.88Z" transform="translate(-0.88 -0.9)"/><path class="cls-84" d="M566.07,505.86c4.35,1.33,5.39,4.93,6,8.8.39,2.52.8,5,4,5.44s5.19-1,6.46-3.55c2.74-5.48,4.91-11.13,2.44-17.38-.86-1.18-1.23-2.31.28-3.31,4.89,8.34,2.16,23.53-5.23,29.24a47,47,0,0,1-4.81.95c-2.94.28-4.83-.19-3.72-4.09,1.48-5.16-4.14-2.73-5.66-4.81,3.3-2.15,3.54-4.7,1.15-7.74C566.2,508.43,565.19,507.34,566.07,505.86Z" transform="translate(-0.88 -0.9)"/><path class="cls-85" d="M428,399.15c3,6.66,9.6,8.46,15.37,11.36,1.16.58,2.42,1,3.64,1.44-1.12,3.36-3.77,2.28-5.69,1.52-3.63-1.46-7.58-2.58-10.35-5.54-3.92-4.2-8.41-7.14-14.23-7.76l.41-.38A12.23,12.23,0,0,1,428,399.15Z" transform="translate(-0.88 -0.9)"/><path class="cls-86" d="M483.9,500c.85,5.31,5.25,8.11,8.26,11.91,1,1.32,4.61,2.89.8,5.2-5.47-4.72-11-9.33-12.55-17C480,498,479.78,496,481,494c.87-.81,0-2.36,1.6-3.17C484.63,493.7,482.6,497.17,483.9,500Z" transform="translate(-0.88 -0.9)"/><path class="cls-87" d="M483.9,500c-1.77-2.37-.62-5.12-1.06-7.75-1.28-.18-.84,1.55-1.8,1.72a14.89,14.89,0,0,1,5.37-12.48c-.79,5.84-3.56,11.35-2.27,17.38Z" transform="translate(-0.88 -0.9)"/><path class="cls-88" d="M500.94,407.12c-3.54-4-9.12-4.67-13.06-8,.69-1.28,2-.63,3-1,4.69.71,7.07,5.11,11.1,6.88.28,1,1.27,1.93.55,3.13Z" transform="translate(-0.88 -0.9)"/><path class="cls-89" d="M597.08,597.4l4,3.59c1.73,11.77.72,23.14-5.13,33.74-3,5.52-6.31,10.93-9.44,16.41-3,5.32-5.7,6.44-11.4,4.37a14.88,14.88,0,0,0-8.8-.5c-4,1-8.27,1.38-12.13,2.79-13.48,4.92-22.9-2.83-32.53-10-3.32-2.47-2.65-4.71.6-7,4.09-2.89,8.65-4.1,13.45-4.84,2.58-.4,5.35-.07,7.6-1.84a3.61,3.61,0,0,1,3.84-1.8c4-3.58,4-9.3-.41-12.44a28.47,28.47,0,0,0-13.67-5c-3.58,1.08-6.95-.29-10.28-1.13-11.15-2.83-22.74-3.24-33.83-6.45-4.68-1.35-6.67.76-6.11,5.58s1.55,9.54,4.51,13.6c.78,1.07,1.61,2.15,1.52,3.6,3.24,3.71,8.36,4.58,11.85,7.92,1.43,1.37,3.08,2.51,4.47,3.91,4.73,4.74,4.36,7.83-1.41,11.4-3.22,2-6.58,3.76-9.87,5.63l.08,0c-21,4.11-41.46-7.52-50.88-31-1.22-5.72-4.31-10.8-5.82-16.39-3.29-12.19-1.2-23.27,7.73-32.64,1.88-.92,3.52-2.57,5.91-2a21.08,21.08,0,0,1,5.87,2.53c8.92,8.13,19.9,12.51,30.91,16.79a207.65,207.65,0,0,0,46.58,12.42c12.35,1.71,24.19-.54,35.8-4.22,6.46-2.05,12.62-5.07,19.53-5.46C592.13,598.65,594.31,596.55,597.08,597.4Z" transform="translate(-0.88 -0.9)"/><path class="cls-35" d="M488.83,630.06c-6.86-5.48-7.77-13.31-7.53-21.12.13-4.4,4.52-4.06,7.46-3.24,11.23,3.13,22.95,3.62,34.2,6.52,3.36.86,6.9,1,10.06,2.64,2.57,2.26,6,2.48,9,3.92a17.83,17.83,0,0,1,5.37,3.44c1.12,1.17,2.06,2.84,1.31,4.54-.94,2.11-2.56.29-3.87.42-8.44.85-17.25-.54-25.12,4a13.86,13.86,0,0,1-6.57,2c-1.6,0-3.85.31-4.65,1.36-5,6.53-8.74.92-12.5-1.32C493.66,631.78,491.53,630.38,488.83,630.06Z" transform="translate(-0.88 -0.9)"/><path class="cls-35" d="M547.1,632.33a4.28,4.28,0,0,1-3.84,1.8c-.45-.16-1.27-.28-1.3-.51-.42-3,2.36-2.27,3.8-3C548.06,629.54,547.05,631.44,547.1,632.33Z" transform="translate(-0.88 -0.9)"/><path class="cls-35" d="M493.87,658.92c2.27.56,4-1.19,7.06-1.75-2.71,3.68-6.47,2.87-9.12,4.7-.53-2.34,2-1.61,2.14-3Z" transform="translate(-0.88 -0.9)"/><path class="cls-35" d="M487.74,661.88c-1.51,1.47-2.76,1.33-4.45.23C484.79,660.75,486,660.71,487.74,661.88Z" transform="translate(-0.88 -0.9)"/><path class="cls-90" d="M450.92,578l-5.94.87c2.22-2.75,4.51-5.4,7.94-6.72,9.12,3.81,17.23-.16,25.41-3.37a60.81,60.81,0,0,0,6.22-3.19c11.28-6,22.88-7.74,35.14-3.13,5.66,2.13,11.72,2.59,17.68,3A47.26,47.26,0,0,1,570,580.57c3.21,3.4,7,6.12,10.52,9.2,1.41,1.23,3.46,2.35,2.26,4.87-5.14,3.71-10,.47-14.64-1-11-3.59-21.87-7.69-33.36-9.48-10.11-1.58-20.21-3.06-30.45-3.83-15.71-1.18-31.47-.31-47.16-1.72C455.11,578.38,453.13,576.81,450.92,578Z" transform="translate(-0.88 -0.9)"/><path class="cls-91" d="M582.86,594.08c-10-7.72-17.65-18.33-29.69-23.69-6.93-3.09-14.22-3.37-21.42-4a83.13,83.13,0,0,1-18-3.89c-8.84-2.79-16.66-.58-24.59,2.68-6.59,2.71-12.66,6.55-19.57,8.62-3.91,1.18-7.88,1.28-11.81,1.66-1.88.18-5.05.33-4.9-3.35,4.15-3.27,9.25-4.41,14.1-6,11.81-3.92,23.25-8.92,35.3-12.12,5.41-1.44,10.77-2,15.88,1.21a8.24,8.24,0,0,0,5.33.89,45.54,45.54,0,0,1,15.29,1.38c4.13,2.9,9.36,2.52,13.78,4.7,16.16,8,31.91,16.44,42.28,32,1.25,1.92-.3,2.6-1.55,3.24C590.08,599.07,585.32,597.51,582.86,594.08Z" transform="translate(-0.88 -0.9)"/><path class="cls-34" d="M690.53,762.56c1.46,2.2,2,3.91.92,5.67-.39.62-1.23.35-1.68-.24C688.34,766.11,689.78,764.6,690.53,762.56Z" transform="translate(-0.88 -0.9)"/><path class="cls-92" d="M490.9,398.09c-.71,1.24-2.1.43-3,1l-8-4.17c-2.22-.86-3.87-.93-3.44,2.29a3.71,3.71,0,0,1-.39,2.81v0c-1.79-.8-1.77-2.54-2.3-4.08-1.1-3.17-3.87-3.22-6.56-2.9-3.47.41-1.16,2.78-1.12,4.15.15,5.19-3.53,8.25-8.24,6.6a6,6,0,0,1-2-4.85c-1.9-1.17-3.74-2.21-1.62-4.89,1.15-1.44-.29-2.41-1.44-2-3.52,1.25-7.1.46-10.62.78C437.43,395,431.81,395,428,399.15c-3.55,1.47-7.2,1.12-10.86.64-3.91-3.55.1-4.52,2.09-5.32a109.13,109.13,0,0,1,33.42-7.31c10.36-.7,20.6.51,29.92,5.73C485.43,394.49,488.13,396.35,490.9,398.09Z" transform="translate(-0.88 -0.9)"/><path class="cls-93" d="M566.07,505.86c1,1.27,2.12,2.48,3,3.83,3.16,4.71,2.13,7-3.27,7.46-2.53-.76-5.09-1.46-7.6-2.29-2.78-.92-5.42-1.62-7.86.87-.72.73-1.81,1.81-3,.73-.85-.75-.43-1.88-.18-2.82C549.25,505.86,559.32,501.73,566.07,505.86Z" transform="translate(-0.88 -0.9)"/><path class="cls-94" d="M507.56,496.83c5.22-.49,9.28,2.21,12.75,6.08.73.81,1.72,1.84,1,3.08s-2,1-3.13.52a28,28,0,0,0-16.62-1.63c-1.7.36-3.86.56-4.38-2-.42-2.1.7-3.49,2.37-4.53C501.92,496.84,504.59,496.8,507.56,496.83Z" transform="translate(-0.88 -0.9)"/><path class="cls-95" d="M582.86,594.08c4,1.36,8,5.16,12,.1a3.79,3.79,0,0,1,2.2,3.22L590,600.07c-6.14.88-12.19,1-18.05-1.62-20.77-9.36-43.09-12.2-65.32-15.41a60.17,60.17,0,0,0-11.46-.3c-11,.51-21.92-1.07-32.89-1.08A12.7,12.7,0,0,1,456,580L450.92,578c.24-1.07.71-1.91,2-1.77,28.06,3.1,56.55.67,84.4,6.7,12.39,2.68,24.21,7.16,36.3,10.79C576.64,594.58,579.72,595.32,582.86,594.08Z" transform="translate(-0.88 -0.9)"/><path class="cls-96" d="M611.1,414l-6.19,1.08h-7.86c3.62-2.68,7.84-3.36,12.09-4.07,20.28-3.4,37.56,3.63,53.43,15.4,2.41,1.79,6.43,4.27,4.41,7.26-2.21,3.26-5.54,0-8.13-1.62-.22-.13-.62,0-.93.05-3-.17-4.13-3-6.23-4.43-2.32-1.61-3.85-1.3-5.33.86-2,1.41-2.9.46-3.35-1.58-1.28-5.81-1.3-5.79-6.27-2.82A17.55,17.55,0,0,0,635,425a6.68,6.68,0,0,0-2.21,2.48c-.88,1.83-1.73,3.74-4.25,3.52s-3.83-1.81-4.87-3.82a13.35,13.35,0,0,1-1-3.83c-.42-2.16,2.18-5.3-.65-6.31C618.52,415.74,615.57,411.79,611.1,414Z" transform="translate(-0.88 -0.9)"/><path class="cls-97" d="M634.11,423.88c.81-1.41,3.19-.31,3.62-2.09.53-2.23,1.4-3.28,3.72-2,2,1.16,4.1,2.2,3.12,5.27-.37,1.15-2.05,3.51,1.47,2.92,1,4.29-2,5.62-5,6.94-7.38,1-14.42-.64-21.44-2.62-3.55-1-4.46-3.57-4.49-6.79,0-2.14,0-4.28,0-6.42,3.05-5.07-.69-4.93-3.95-5.15,4.93-3.16,8.92,1.73,13.55,1.7,1.52,0,1,2.1.3,3.31a7.79,7.79,0,0,0-.7,6.24c.66,2.06,1.64,4,4.07,4.61,3.25.77,2-2.82,3.6-3.71,1.2.29,2.16,2.32,3.28,1.34C636.8,426.06,634.26,425.18,634.11,423.88Z" transform="translate(-0.88 -0.9)"/><path class="cls-98" d="M641,435c1.72-2.29,4.6-3.73,5-6.94.84-3.86,2.39-4.8,5.7-1.88,2.15,1.9,4.48,3.58,6.18,5.94-4.37,2.47-9.29,3.23-14,4.5C642.31,437,641.29,436.67,641,435Z" transform="translate(-0.88 -0.9)"/><path class="cls-99" d="M455.82,399a4,4,0,0,1,2,4.85c-1.74,1.16-3.61,2.11-4.76-.52S453.16,399.33,455.82,399Z" transform="translate(-0.88 -0.9)"/><path class="cls-77" d="M476.06,400a20.54,20.54,0,0,1-.32-2.45c0-1.25-1.23-2.84.25-3.67a3,3,0,0,1,3.91,1C475.24,394.09,477.49,398.45,476.06,400Z" transform="translate(-0.88 -0.9)"/><path class="cls-100" d="M456,580c29,.52,58.08.75,86.69,7,10.3,2.24,19.85,6.53,29.72,9.92A55.56,55.56,0,0,0,590,600.07c-11.3,1.09-21.08,7.38-32.27,9.17a89.08,89.08,0,0,1-32.48-.39,237,237,0,0,1-57.57-19.78A37.51,37.51,0,0,1,456,580Z" transform="translate(-0.88 -0.9)"/><path class="cls-101" d="M634.11,423.88c2.26-.07,4,.58,3.95,3.24,0,1.79-1.41,2.62-3,2.78-2.75.27-3.37-1.46-3.16-3.78Z" transform="translate(-0.88 -0.9)"/></svg>